<?xml version="1.0" standalone="no"?>
<!DOCTYPE svg PUBLIC "-//W3C//DTD SVG 20010904//EN"
 "http://www.w3.org/TR/2001/REC-SVG-20010904/DTD/svg10.dtd">
<svg version="1.0" xmlns="http://www.w3.org/2000/svg"
 width="1280.000000pt" height="1280.000000pt" viewBox="0 0 1280.000000 1280.000000"
 preserveAspectRatio="xMidYMid meet">

<g transform="translate(0.000000,1280.000000) scale(0.100000,-0.100000)"
fill="#000000" stroke="none">
<path d="M9380 11004 c-186 -42 -311 -107 -439 -228 -272 -260 -348 -664 -187
-1003 114 -240 306 -401 564 -476 113 -32 343 -31 457 1 208 60 384 189 500
367 67 104 101 184 125 292 66 296 -30 608 -251 819 -113 107 -235 175 -384
215 -104 28 -292 34 -385 13z"/>
<path d="M6170 9584 c-652 -46 -1285 -293 -1795 -701 -128 -102 -349 -320
-454 -446 -651 -786 -882 -1827 -625 -2824 294 -1147 1255 -2061 2424 -2306
379 -80 813 -90 1180 -27 1002 171 1846 797 2311 1712 177 350 296 757 319
1099 21 309 8 698 -31 903 -98 518 -309 981 -636 1394 -99 124 -362 386 -498
495 -462 370 -990 598 -1570 677 -135 18 -503 32 -625 24z m403 -1239 c603
-64 1130 -394 1449 -907 59 -95 159 -299 152 -310 -3 -5 -270 -8 -593 -8 -643
0 -640 0 -712 -59 -19 -16 -48 -53 -64 -82 l-30 -54 -3 -486 c-3 -471 -2 -488
18 -542 14 -37 36 -69 66 -97 86 -79 47 -75 717 -78 503 -2 597 -5 597 -17 0
-20 -76 -177 -131 -271 -138 -233 -349 -455 -589 -619 -111 -75 -332 -183
-467 -228 -388 -129 -829 -127 -1218 5 -662 223 -1139 763 -1280 1446 -144
699 115 1429 669 1882 296 241 670 393 1056 429 146 13 208 12 363 -4z"/>
</g>
</svg>
