<?xml version="1.0" ?><!-- Uploaded to: SVG Repo, www.svgrepo.com, Generator: SVG Repo Mixer Tools -->
<svg width="800px" height="800px" viewBox="0 0 48 48" id="Layer_1" version="1.1" xml:space="preserve" xmlns="http://www.w3.org/2000/svg" xmlns:xlink="http://www.w3.org/1999/xlink"><style type="text/css">
	.st0{fill:#010101;}
</style><path class="st0" d="M41,35.5h-4.266c1.565-1.027,2.602-2.795,2.602-4.803V7.237c0-0.276-0.224-0.5-0.5-0.5H37.24  c-0.104,0-0.195,0.039-0.275,0.093c-0.009,0.006-0.021,0.003-0.029,0.01c-1.931,1.477-4.763,1.476-6.689,0  c-0.008-0.006-0.02-0.004-0.029-0.01c-0.08-0.054-0.171-0.093-0.275-0.093h-1.597c-0.276,0-0.5,0.224-0.5,0.5V11.5h-0.831  c-0.104,0-0.195,0.039-0.275,0.093c-0.009,0.006-0.021,0.003-0.029,0.01c-1.581,1.209-3.9,1.208-5.479,0  c-0.008-0.006-0.02-0.004-0.029-0.01c-0.08-0.054-0.171-0.093-0.275-0.093h-0.775V7.237c0-0.276-0.224-0.5-0.5-0.5h-1.597  c-0.104,0-0.195,0.039-0.275,0.093c-0.009,0.006-0.021,0.003-0.029,0.01c-1.927,1.476-4.759,1.477-6.689,0  c-0.008-0.006-0.02-0.004-0.029-0.01c-0.08-0.054-0.171-0.093-0.275-0.093H9.164c-0.276,0-0.5,0.224-0.5,0.5v23.46  c0,1.539,0.596,2.983,1.679,4.066c0.28,0.28,0.585,0.524,0.909,0.737H7c-0.276,0-0.5,0.224-0.5,0.5v5c0,0.276,0.224,0.5,0.5,0.5h34  c0.276,0,0.5-0.224,0.5-0.5v-5C41.5,35.724,41.276,35.5,41,35.5z M29.525,34.763c0.28,0.28,0.586,0.524,0.91,0.737h-3.608  c0.751-0.547,1.337-1.297,1.679-2.175C28.774,33.845,29.1,34.338,29.525,34.763z M30.443,8.14c0.819,0.448,1.724,0.7,2.648,0.769  v22.473c0,0.276,0.224,0.5,0.5,0.5s0.5-0.224,0.5-0.5V8.909c0.924-0.069,1.829-0.321,2.648-0.769v22.384  c0,1.736-1.412,3.148-3.148,3.148c-0.843,0-1.634-0.327-2.226-0.918c-0.596-0.603-0.923-1.395-0.923-2.23V8.14z M28.847,7.737h0.597  v22.787c0,1.099,0.43,2.141,1.213,2.935c0.783,0.783,1.826,1.214,2.936,1.214c2.287,0,4.148-1.861,4.148-4.148V7.737h0.596v22.96  c0,2.616-2.128,4.745-4.744,4.745c-1.271,0-2.465-0.492-3.359-1.386c-0.894-0.894-1.386-2.087-1.386-3.359V12V7.737z M21.429,12.898  c0.638,0.327,1.334,0.511,2.044,0.573v18.666c0,0.276,0.224,0.5,0.5,0.5s0.5-0.224,0.5-0.5V13.471  c0.709-0.062,1.406-0.247,2.043-0.573v18.524c0,1.402-1.141,2.543-2.543,2.543c-0.681,0-1.32-0.264-1.798-0.741  c-0.481-0.488-0.746-1.128-0.746-1.802V12.898z M20.429,12.5v18.923c0,0.938,0.367,1.828,1.037,2.506  c0.668,0.668,1.559,1.037,2.507,1.037c1.953,0,3.543-1.589,3.543-3.543V12.5h0.331v18.197v0.87c0,2.136-1.738,3.875-3.874,3.875  c-1.039,0-2.014-0.402-2.743-1.132s-1.132-1.704-1.132-2.743v-0.114c0.033-0.248,0.056-0.499,0.056-0.756V12.5H20.429z M11.26,8.14  c0.819,0.448,1.724,0.701,2.648,0.77v22.472c0,0.276,0.224,0.5,0.5,0.5s0.5-0.224,0.5-0.5V8.91c0.925-0.068,1.83-0.321,2.648-0.769  v22.383c0,1.736-1.412,3.148-3.148,3.148c-0.842,0-1.633-0.327-2.225-0.918c-0.596-0.604-0.924-1.396-0.924-2.23V8.14z   M9.664,30.697V7.737h0.596v22.787c0,1.099,0.431,2.14,1.214,2.935c0.783,0.783,1.825,1.214,2.935,1.214  c2.287,0,4.148-1.861,4.148-4.148V7.737h0.597v4.044C19.12,11.848,19.098,11.92,19.098,12v19.248  c-0.277,2.355-2.262,4.194-4.689,4.194c-1.272,0-2.465-0.492-3.358-1.386C10.156,33.162,9.664,31.969,9.664,30.697z M19.462,33.426  c0.241,0.588,0.598,1.128,1.06,1.591c0.182,0.182,0.384,0.334,0.588,0.483h-3.559C18.347,34.978,19.007,34.266,19.462,33.426z   M40.5,40.5h-33v-4h33V40.5z"/><path class="st0" d="M15.848,39h16.305c0.276,0,0.5-0.224,0.5-0.5s-0.224-0.5-0.5-0.5H15.848c-0.276,0-0.5,0.224-0.5,0.5  S15.571,39,15.848,39z"/></svg>