<?xml version="1.0" encoding="iso-8859-1"?>
<!-- Uploaded to: SVG Repo, www.svgrepo.com, Generator: SVG Repo Mixer Tools -->
<svg fill="#000000" height="800px" width="800px" version="1.1" id="Layer_1" xmlns="http://www.w3.org/2000/svg" xmlns:xlink="http://www.w3.org/1999/xlink" 
	 viewBox="0 0 512 512" xml:space="preserve">
<g>
	<g>
		<path d="M511.531,221.228c-0.171-1.6-0.448-3.115-1.003-4.672c-0.427-1.259-1.024-2.411-1.707-3.563
			c-0.427-0.768-0.555-1.6-1.088-2.325c-0.448-0.576-1.088-0.853-1.579-1.387c-0.427-0.491-0.64-1.131-1.131-1.579l-78.357-71.232
			V95.489c0-11.797-9.536-21.333-21.333-21.333h-47.211l-44.757-40.683c-32.704-29.739-82.027-29.717-114.731,0l-44.757,40.683
			h-47.211c-11.797,0-21.333,9.536-21.333,21.333v40.981L6.976,207.703c-0.491,0.448-0.704,1.088-1.152,1.579
			c-0.469,0.533-1.109,0.811-1.557,1.387c-0.533,0.725-0.661,1.557-1.088,2.325c-0.683,1.152-1.28,2.304-1.707,3.563
			c-0.555,1.557-0.832,3.072-1.003,4.672C0.384,221.996,0,222.7,0,223.489v235.328c0,23.168,18.837,42.005,42.005,42.005h427.989
			c23.168,0,42.005-18.837,42.005-42.005V223.489C512,222.7,511.616,221.996,511.531,221.228z M426.667,194.135l30.549,27.776
			l-30.549,22.912V194.135z M227.328,65.047c16.341-14.869,41.003-14.869,57.344,0l10.005,9.109h-77.355L227.328,65.047z
			 M198.251,208.385c8.341-8.32,21.824-8.32,30.165,0l25.28,25.28l49.237-65.664c7.061-9.387,20.437-11.328,29.867-4.245
			c9.429,7.061,11.349,20.437,4.267,29.867l-64,85.333c-3.712,4.949-9.387,8.043-15.552,8.469c-0.512,0.043-1.024,0.064-1.515,0.064
			c-5.653,0-11.072-2.24-15.083-6.251l-42.667-42.667C189.909,230.231,189.909,216.727,198.251,208.385z M85.333,194.135v50.688
			l-30.549-22.912L85.333,194.135z M42.667,266.135l113.216,84.928L42.667,431.937V266.135z M78.507,458.775l120.341-85.952h114.304
			l119.552,85.376L78.507,458.775z M356.117,351.063l113.323-85.013l0.491,166.293L356.117,351.063z"/>
	</g>
</g>
</svg>