<?xml version="1.0" ?><!-- Uploaded to: SVG Repo, www.svgrepo.com, Generator: SVG Repo Mixer Tools -->
<svg width="800px" height="800px" viewBox="0 0 128 128" data-name="Слой 1" id="Слой_1" xmlns="http://www.w3.org/2000/svg"><defs><style>.cls-1{fill:#bdbdbd;}.cls-2{fill:#404040;}</style></defs><title/><polygon class="cls-1" points="126 2 2 2 50 49.76 50 125.69 78 98.22 78 50 126 2"/><path class="cls-2" d="M50,127.69a2,2,0,0,1-2-2V50.59L.59,3.42A2,2,0,0,1,2,0H126a2,2,0,0,1,1.41,3.41L80,50.83V98.22a2,2,0,0,1-.6,1.43l-28,27.47A2,2,0,0,1,50,127.69ZM6.85,4,51.41,48.35A2,2,0,0,1,52,49.76v71.16L76,97.38V50a2,2,0,0,1,.59-1.41L121.17,4Z"/></svg>