<?xml version="1.0" encoding="iso-8859-1"?>
<!-- Uploaded to: SVG Repo, www.svgrepo.com, Generator: SVG Repo Mixer Tools -->
<!DOCTYPE svg PUBLIC "-//W3C//DTD SVG 1.1//EN" "http://www.w3.org/Graphics/SVG/1.1/DTD/svg11.dtd">
<svg fill="#000000" version="1.1" id="Capa_1" xmlns="http://www.w3.org/2000/svg" xmlns:xlink="http://www.w3.org/1999/xlink" 
	 width="800px" height="800px" viewBox="0 0 47.001 47.001"
	 xml:space="preserve">
<g>
	<path d="M37.591,19.948h-0.686v-6.532C36.906,6.019,30.892,0,23.498,0c-7.393,0-13.406,6.019-13.406,13.416v6.532H9.41
		c-2.768,0-5.031,2.264-5.031,5.032v16.988c0,2.768,2.264,5.032,5.031,5.032h28.182c2.768,0,5.031-2.265,5.031-5.032v-16.99
		C42.623,22.212,40.359,19.948,37.591,19.948z M30.116,38.516c0,0-2.486,2.74-5.414,2.176c-10.351,3.75-8.806-4.019-8.806-4.019
		c-4.742-0.844-4.919-6.432-2.759-8.045c-5.034-5.428,0.909-8.432,5.698-8.234c1.707,0.069,3.8,0.82,4.19,0.158
		c0.689-1.954-1.324-2.555-1.536-5.842c-0.212-3.27,3.156-6.958,6.423-6.414c3.27,0.542,1.691,5.086,1.539,5.808
		c-0.153,0.733-0.523,4.858,1.275,6.796c1.793,1.941,2.619,2.709,2.867,5.045C35.937,27.053,38.2,36.979,30.116,38.516z"/>
</g>
</svg>