<?xml version="1.0" encoding="iso-8859-1"?>
<!-- Uploaded to: SVG Repo, www.svgrepo.com, Generator: SVG Repo Mixer Tools -->
<svg fill="#000000" height="800px" width="800px" version="1.1" id="Layer_1" xmlns="http://www.w3.org/2000/svg" xmlns:xlink="http://www.w3.org/1999/xlink" 
	 viewBox="0 0 507.975 507.975" xml:space="preserve">
<g>
	<g>
		<path d="M174.1,310c-4.6-6.7-14-8-20.4-2.9c-16.8,13.5-53.5,39.2-90.1,46.2c-7.7,1.5-12.7,8.9-11.2,16.5S61.3,382.4,69,381
			c42.3-8.1,83.3-36.6,102.6-52.1C177.3,324.3,178.3,316,174.1,310z"/>
	</g>
</g>
<g>
	<g>
		<path d="M131,388.8c-4.1-6.6-12.8-8.6-19.4-4.5c-8.4,5.2-42,13.5-51.9,15.6c-6.7,1.1-11.7,7-11.7,14c0.1,7.7,6.4,13.9,14.1,13.9
			c0.1,0,0.1,0,0.2,0c3.6,0,49.4-10.5,64.1-19.6C133,404.1,135.1,395.4,131,388.8z"/>
	</g>
</g>
<g>
	<g>
		<path d="M495.6,435.7l-68-68c8.4-17.3,13.3-36.6,13.3-57.1c0-66.2-49.5-120.9-113.3-129.1c7.3-38.8-2.6-78-28.3-111.6
			C267.3,28.2,213.8,0,166.1,0c-40.4,0-89.4,22.7-122,56.4C14,87.5-1.3,125.8,0.1,166.9c0.3,7.8,6.8,13.9,14.6,13.6
			s13.9-6.8,13.6-14.6c-1.4-42.1,18.9-72.2,36.1-90c31.8-32.8,75-47.8,101.8-47.8c38.7,0,84.3,24.3,110.9,59
			c15.5,20.2,31.5,52.7,21.9,93.9c-8.6,0.8-16.9,2.5-25,4.9c10.3-75.7-35.2-134.8-107.7-135.8c-55.4,2.7-95.9,43.8-107,99.3
			c-6.3,34.8-18.8,52.4-37.2,52.4c-7.8,0-14.1,6.3-14.1,14.1c0,7.8,6.3,14.1,14.1,14.1c18.2,0,49.9-9,63.1-66.8
			c8.5-49.7,34.7-78.8,81-84.9c62.4,2,93.5,54.8,75.7,122.2c-11.4,7.2-21.6,16.1-30.3,26.4c5.1-11.4,8.3-23.9,9-37.6
			c1.7-30.7-6.5-58.7-21.8-75c-17.3-18.3-43.2-19.3-61.3-0.8c-15,15.3-23,42-22.5,75.2c-1.3,42.5-38.3,58.9-82.9,59.9
			c-7.8,0.3-13.9,6.8-13.6,14.6s6.8,13.9,14.6,13.6c88.5-2.8,111-56.2,110.3-87.3c-0.3-24.3,3.5-44,14.3-56.2
			c6.2-6.3,13.6-7.1,20.7,0.4c9.8,10.4,15.4,31.6,14.2,54C188.9,256.5,99.8,290,47,303.8c-7.5,2-12,9.7-10.1,17.2
			c2,7.5,9.7,12,17.2,10.1c42-11,104.2-33.5,139.6-75.5c-7.9,16.8-12.4,35.4-12.4,55.1c0,11.4,1.6,22.3,4.3,32.8
			c-10,12-20.9,21.2-32.5,26.9c-7,3.4-9.9,11.9-6.4,18.9c3.4,7,11.9,9.9,18.9,6.4c11.2-5.5,21.7-13.1,31.5-22.8
			c3.3,6.1,7.3,11.9,11.5,17.4c-12.8,11.5-28.1,18.8-47.3,22.7c-7.6,1.5-12.6,9-11.1,16.6c1.5,7.6,9,12.6,16.6,11.1
			c24.4-4.9,44.6-14.8,61.2-29.9c22.5,18.8,51.5,30.2,83,30.2c20.3,0,39.5-4.9,56.7-13.3l67.9,67.9c16.5,16.5,43.3,16.5,59.9,0
			C512.1,479.1,512.1,452.3,495.6,435.7z M311.2,412.7c-56,0-101.6-45.8-101.6-102s45.6-102,101.6-102s101.6,45.8,101.6,102
			S367.2,412.7,311.2,412.7z M475.6,475.6c-5.5,5.5-14.4,5.5-20,0l-63.4-63.4c7.3-5.9,14-12.6,19.9-20l63.4,63.4
			C481.2,461.2,481.2,470.1,475.6,475.6z"/>
	</g>
</g>
<g>
	<g>
		<path d="M373.2,265.2c-5.5-5.5-14.4-5.5-20,0l-61.1,61.1L269,303.1c-5.5-5.5-14.4-5.5-20,0c-5.5,5.5-5.5,14.4,0,20l33.2,33.2
			c5.5,5.5,14.4,5.5,20,0l71.1-71.1C378.8,279.7,378.8,270.7,373.2,265.2z"/>
	</g>
</g>
</svg>