<?xml version="1.0" encoding="iso-8859-1"?>
<!-- Uploaded to: SVG Repo, www.svgrepo.com, Generator: SVG Repo Mixer Tools -->
<svg fill="#000000" height="800px" width="800px" version="1.1" id="Layer_1" xmlns="http://www.w3.org/2000/svg" xmlns:xlink="http://www.w3.org/1999/xlink" 
	 viewBox="0 0 508.01 508.01" xml:space="preserve">
<g>
	<g>
		<path d="M262.759,0c-113.8,0-206.4,108.5-206.4,241.8c0,7.8,6.4,14.1,14.2,14.1c7.8,0,14.1-6.3,14.1-14.1
			c0-117.8,79.9-213.6,178.1-213.6s178.1,95.8,178.1,213.6c0,7.8,6.3,14.1,14.1,14.1c7.8,0,14.1-6.3,14.1-14.1
			C469.159,108.5,376.56,0,262.759,0z"/>
	</g>
</g>
<g>
	<g>
		<path d="M449.56,389.3c-49-8.9-80-56.1-81.4-126.6c0.8-6.8,1.4-13.7,1.4-20.9c0-72-47.9-130.7-106.8-130.7
			s-106.8,58.7-106.8,130.7c0,7.8,6.3,14.1,14.1,14.1c7.8,0,14.1-6.3,14.1-14.1c0-56.5,35.3-102.4,78.6-102.4
			c43.3,0,78.6,46,78.6,102.4c0,56.2-34.1,102-76.2,102.4c-10.2-0.7-114.5-6-178.9,71.3c-5,6-4.2,14.9,1.8,19.9
			c6.2,5,14.9,4.1,19.9-1.8c56.8-68.2,154.6-61.3,155.6-61.2c0.4,0,0.8,0,1.2,0c34.4,0,64.3-19.6,83.3-50.5
			c12.8,45.4,42.4,85.2,96.4,95.1c6.3,1.2,14.5-2.4,16.4-11.3C462.26,398,457.159,390.7,449.56,389.3z"/>
	</g>
</g>
<g>
	<g>
		<path d="M456.459,334.3c-40.9-4.1-37.1-90.8-37.1-91.6v-0.8c0-102.7-70.3-186.2-156.6-186.2c-86.2,0-156.3,83.2-156.6,185.6
			c-0.4,3.5-5.7,36.8-57.9,55c-7.4,2.6-11.2,10.6-8.7,18c2.6,7.4,10.6,11.2,18,8.7c42.7-14.8,72.6-44.8,76.8-81
			c0-87.1,57.6-158,128.4-158c70.7,0,128.2,70.7,128.4,157.6c-0.5,8.9-4.4,114.2,62.5,120.9c7,0.8,14.4-4.1,15.5-12.6
			C469.859,342,464.159,335,456.459,334.3z"/>
	</g>
</g>
<g>
	<g>
		<path d="M262.759,166.7c-31.5,0-57.1,33.7-57.1,75.1c0,7.8,6.3,14.1,14.1,14.1s14.1-6.3,14.1-14.1c0-26.8,15.2-46.8,28.8-46.8
			c13.6,0,28.8,20,28.8,46.8c0,26.7-13.7,45.9-26.1,46.8c-12.8-0.3-151.3-1.4-216.4,89.9c-4.5,6.3-3,15.2,3.3,19.7
			c5.3,3.9,14.3,3.9,19.7-3.3c59-82.7,191.8-78.2,193-78.1c30.3-0.8,54.9-31.5,54.9-75C319.859,200.4,294.259,166.7,262.759,166.7z"
			/>
	</g>
</g>
<g>
	<g>
		<path d="M349.859,379.2c-5.1-5.9-14-6.5-19.9-1.4c-7.9,6.8-22.6,15.4-48,17.4c-80.7,6.3-141.6,21.3-176.5,74
			c-4.3,6.5-2.5,15.3,4,19.6c5,3.5,14.2,3.7,19.6-4c28.6-43.2,82.7-55.8,155.1-61.4c33-2.6,53.2-14.7,64.3-24.3
			C354.359,394,354.959,385.1,349.859,379.2z"/>
	</g>
</g>
<g>
	<g>
		<path d="M444.859,447.2c-38.3-5.7-71.5-33.1-72-33.5c-6-5-14.9-4.2-19.9,1.7c-5,6-4.2,14.9,1.7,19.9c1.6,1.3,39.6,32.9,86,39.8
			c7.7,1,14.5-3.7,16-11.9C457.859,455.6,452.56,448.4,444.859,447.2z"/>
	</g>
</g>
<g>
	<g>
		<path d="M396.96,485.6c-17.1-23.4-62.4-38.5-115.3-38.5c-53,0-98.2,15.1-115.3,38.5c-4.6,6.3-3.2,15.1,3.1,19.7
			c6.3,4.6,15.1,3.2,19.7-3.1c9.7-13.4,44.7-26.9,92.5-26.9s82.7,13.5,92.5,26.9c3.9,5.3,12.1,8.3,19.7,3.1
			C400.159,500.7,401.56,491.9,396.96,485.6z"/>
	</g>
</g>
</svg>