<?xml version="1.0" encoding="iso-8859-1"?>
<!-- Uploaded to: SVG Repo, www.svgrepo.com, Generator: SVG Repo Mixer Tools -->
<svg fill="#000000" height="800px" width="800px" version="1.1" id="Layer_1" xmlns="http://www.w3.org/2000/svg" xmlns:xlink="http://www.w3.org/1999/xlink" 
	 viewBox="0 0 508.086 508.086" xml:space="preserve">
<g>
	<g>
		<path d="M377.086,115.443c-2.2-4.7-57.6-115.4-174.3-115.4c-115.9,0-157.8,67.5-159.5,70.4c-4,6.6-1.8,15.2,4.8,19.2
			c6.6,4.1,15.3,2,19.3-4.7c1.5-2.3,36.3-56.7,135.3-56.7c98.8,0,148.5,98.6,149,99.6c3.2,6.2,10.7,10.1,18.9,6.5
			C377.586,130.843,380.486,122.443,377.086,115.443z"/>
	</g>
</g>
<g>
	<g>
		<path d="M340.586,165.743c-41.1-117.2-137.7-113.4-138.6-113.3c-192.6,11.3-186.1,223.5-186,225.6c0.3,7.6,6.6,13.5,14.1,13.5
			c6.6,0.1,14.1-5.1,14.1-14.7c-0.3-7.6-5.3-186.7,159.3-196.3c3.1-0.1,72.8-1.9,107.6,87c-8.5,1.3-16.8,3.2-24.8,5.7
			c-18.8-44.5-48-69.3-80.7-68.6h-0.8c-111.5,6.5-138.3,110-136.6,170.7c-0.5,6.5-7,73.1-58.4,89.8c-7.4,2.4-11.5,10.4-9.1,17.8
			c2.8,7.8,10.4,11.4,17.8,9.1c72.1-23.3,77.8-111.8,78-115.6v-0.6v-0.6c-0.5-13.9-1.2-135.9,109.5-142.3
			c20.5-0.7,40.3,18.3,54.2,51c-7.3,3.7-14.2,7.8-20.9,12.4c-6.8-19.8-20.1-33.1-37.4-36.8c-18-3.8-36.7,3.9-50,20.6
			c-25.7,32.2-31.7,74.7-31.4,93.5c-0.7,8.6-11.1,112.2-83.2,136.3c-7.4,2.5-11.4,10.5-8.9,17.9c2.2,6.5,9.1,11.5,17.9,8.9
			c92.7-30.9,102.1-156.4,102.5-161.7v-0.7v-0.7c-0.5-16.5,5.9-51.6,25.2-75.9c6.5-8.2,14.8-12.1,22.1-10.6
			c10.4,3.4,16.9,13.2,19.5,29c-35.3,36.4-51,79.4-49.7,128.1c-11.1,37.1-38.6,86.2-106.6,114.4c-7.2,3-10.6,11.3-7.6,18.4
			c2.8,6.5,10.3,10.8,18.4,7.6c54.7-22.7,86.6-57.5,105.3-91c3.9,11.1,8.9,21.7,15,31.7c-9.7,15.2-33.4,46.8-67.4,54.8
			c-7.6,1.8-12.3,9.4-10.5,17c2.1,7.5,8.8,12.1,17,10.5c37.5-8.9,64-37.7,78.7-58.1c31.4,35.8,77.4,58.5,128.7,58.5
			c94.4,0,171.2-76.8,171.2-171.2C507.986,243.743,433.186,167.843,340.586,165.743z M336.786,479.843c-78.8,0-143-64.1-143-142.9
			s64.1-142.9,143-142.9s143,64.1,143,142.9S415.586,479.843,336.786,479.843z"/>
	</g>
</g>
<g>
	<g>
		<path d="M456.186,322.643c-5.5-5.5-14.4-5.5-20,0l-12.9,12.9c-0.7-47.1-39.2-85.3-86.4-85.3c-47.7,0-86.5,38.8-86.5,86.5
			s38.8,86.5,86.5,86.5c7.8,0,14.1-6.3,14.1-14.1c0-7.8-6.3-14.1-14.1-14.1c-32.1,0-58.3-26.1-58.3-58.3c0-32.1,26.1-58.3,58.3-58.3
			c31.7,0,57.5,25.4,58.2,56.9l-12.8-12.8c-5.5-5.5-14.4-5.5-20,0c-5.5,5.5-5.5,14.4,0,20l37,37c5.5,5.5,14,5.5,20,0l37-37
			C461.686,337.143,461.686,328.143,456.186,322.643z"/>
	</g>
</g>
</svg>