<?xml version="1.0" encoding="utf-8"?>
<!-- Uploaded to: SVG Repo, www.svgrepo.com, Generator: SVG Repo Mixer Tools -->
<svg fill="#000000" width="800px" height="800px" viewBox="0 0 32 32" version="1.1" xmlns="http://www.w3.org/2000/svg">
<title>key-basic</title>
<path d="M14.18 1v15.205c-4.028 0.968-6.51 5.018-5.542 9.046 0.82 3.417 3.903 5.806 7.417 5.748 4.142 0.008 7.506-3.343 7.514-7.485 0.007-3.431-2.316-6.429-5.64-7.281v-5.859h3.75v-2.812h-3.75v-2.812h5.625v-3.75h-9.375zM15.762 19.749c0.049-0.001 0.097-0.001 0.147 0 0.049-0.001 0.097-0.001 0.147 0 2.071 0 3.75 1.679 3.75 3.75s-1.679 3.75-3.75 3.75c-2.071 0.071-3.808-1.551-3.878-3.623-0.071-2.056 1.529-3.787 3.585-3.877v0z"></path>
</svg>