<?xml version="1.0" encoding="utf-8"?><!-- Uploaded to: SVG Repo, www.svgrepo.com, Generator: SVG Repo Mixer Tools -->
<svg width="800px" height="800px" viewBox="-0.5 0 25 25" fill="none" xmlns="http://www.w3.org/2000/svg">
<path d="M22.0098 12.39V7.39001C22.0098 6.32915 21.5883 5.31167 20.8382 4.56152C20.0881 3.81138 19.0706 3.39001 18.0098 3.39001H6.00977C4.9489 3.39001 3.93148 3.81138 3.18134 4.56152C2.43119 5.31167 2.00977 6.32915 2.00977 7.39001V17.39C2.00977 18.4509 2.43119 19.4682 3.18134 20.2184C3.93148 20.9685 4.9489 21.39 6.00977 21.39H13.0098" stroke="#000000" stroke-width="1.5" stroke-linecap="round" stroke-linejoin="round"/>
<path d="M21.209 5.41992C15.599 16.0599 8.39906 16.0499 2.78906 5.41992" stroke="#000000" stroke-width="1.5" stroke-linecap="round" stroke-linejoin="round"/>
<path d="M18.3892 21.21C20.2891 21.21 21.8292 19.6698 21.8292 17.77C21.8292 15.8701 20.2891 14.33 18.3892 14.33C16.4894 14.33 14.9492 15.8701 14.9492 17.77C14.9492 19.6698 16.4894 21.21 18.3892 21.21Z" stroke="#000000" stroke-width="1.5" stroke-linecap="round" stroke-linejoin="round"/>
<path d="M22.9403 22.33L20.8203 20.21" stroke="#000000" stroke-width="1.5" stroke-linecap="round" stroke-linejoin="round"/>
</svg>