<?xml version="1.0" encoding="utf-8"?><!-- Uploaded to: SVG Repo, www.svgrepo.com, Generator: SVG Repo Mixer Tools -->
<svg width="800px" height="800px" viewBox="-0.5 0 25 25" fill="none" xmlns="http://www.w3.org/2000/svg">
<path d="M7 7.40991C7 6.08383 7.52677 4.81207 8.46445 3.87439C9.40213 2.93671 10.6739 2.40991 12 2.40991C13.3261 2.40991 14.5978 2.93671 15.5355 3.87439C16.4732 4.81207 17 6.08383 17 7.40991V13.4099C17 14.736 16.4732 16.0079 15.5355 16.9456C14.5978 17.8832 13.3261 18.4099 12 18.4099C10.6739 18.4099 9.40213 17.8832 8.46445 16.9456C7.52677 16.0079 7 14.736 7 13.4099V7.40991Z" stroke="#000000" stroke-width="1.5" stroke-linecap="round" stroke-linejoin="round"/>
<path d="M21 13.4099C21 15.7969 20.0518 18.0861 18.364 19.7739C16.6761 21.4618 14.3869 22.4099 12 22.4099C9.61305 22.4099 7.32384 21.4618 5.63602 19.7739C3.94819 18.0861 3 15.7969 3 13.4099" stroke="#000000" stroke-width="1.5" stroke-linecap="round" stroke-linejoin="round"/>
</svg>