<?xml version="1.0" encoding="utf-8"?><!-- Uploaded to: SVG Repo, www.svgrepo.com, Generator: SVG Repo Mixer Tools -->
<svg width="800px" height="800px" viewBox="0 0 24 24" fill="none" xmlns="http://www.w3.org/2000/svg">
<path d="M17.0005 11.24V13C17.0005 14.3261 16.4737 15.5978 15.536 16.5355C14.5983 17.4732 13.3266 18 12.0005 18C11.4846 17.9975 10.972 17.9166 10.4805 17.76" stroke="#000000" stroke-width="1.5" stroke-linecap="round" stroke-linejoin="round"/>
<path d="M8 16C7.35089 15.1345 7 14.0819 7 13V7C7 5.67392 7.52677 4.40216 8.46445 3.46448C9.40213 2.5268 10.6739 2 12 2C13.3261 2 14.5978 2.5268 15.5355 3.46448C16.4732 4.40216 17 5.67392 17 7" stroke="#000000" stroke-width="1.5" stroke-linecap="round" stroke-linejoin="round"/>
<path d="M5.21081 18.84C3.81268 17.216 3.04593 15.1429 3.0508 13" stroke="#000000" stroke-width="1.5" stroke-linecap="round" stroke-linejoin="round"/>
<path d="M21.0007 13C20.9995 14.5822 20.5812 16.1361 19.788 17.5051C18.9948 18.8741 17.8547 20.0098 16.4827 20.7977C15.1107 21.5857 13.5551 21.9979 11.973 21.993C10.3908 21.9882 8.83786 21.5664 7.4707 20.77" stroke="#000000" stroke-width="1.5" stroke-linecap="round" stroke-linejoin="round"/>
<path d="M22 2L2 22" stroke="#000000" stroke-width="1.5" stroke-linecap="round" stroke-linejoin="round"/>
</svg>