<?xml version="1.0" encoding="iso-8859-1"?>
<!-- Uploaded to: SVG Repo, www.svgrepo.com, Generator: SVG Repo Mixer Tools -->
<!DOCTYPE svg PUBLIC "-//W3C//DTD SVG 1.1//EN" "http://www.w3.org/Graphics/SVG/1.1/DTD/svg11.dtd">
<svg fill="#000000" height="800px" width="800px" version="1.1" id="Capa_1" xmlns="http://www.w3.org/2000/svg" xmlns:xlink="http://www.w3.org/1999/xlink" 
	 viewBox="0 0 445.167 445.167" xml:space="preserve">
<g>
	<path d="M309.253,197.513c6.316,2.358,13.126,3.735,20.561,3.735c25.749,0,54.267-16.524,89.746-52.003
		c16.512-16.512,25.606-38.467,25.606-61.819c0-23.353-9.095-45.307-25.606-61.819C403.047,9.095,381.092,0.001,357.741,0.001
		s-45.307,9.094-61.819,25.606c-34.706,34.707-51.223,62.66-51.977,87.969c-0.242,8.123,1.167,15.51,3.715,22.33L232.387,152.2
		l-47.964-47.964c-1.407-1.407-3.314-2.197-5.304-2.197s-3.896,0.79-5.304,2.197L54.219,223.832
		c-1.406,1.406-2.196,3.314-2.196,5.303s0.79,3.897,2.196,5.303l52.171,52.171L8.634,390.895
		c-11.79,12.576-11.465,32.724,0.725,44.913c6.229,6.229,14.534,9.359,22.847,9.358c7.955,0,15.917-2.868,22.066-8.633
		l104.285-97.757l52.171,52.171c1.407,1.407,3.314,2.197,5.304,2.197s3.896-0.79,5.304-2.197l119.596-119.596
		c2.929-2.929,2.929-7.678,0-10.606l-36.91-36.91c-0.001-0.001-0.001-0.002-0.002-0.003s-0.002-0.001-0.003-0.002l-11.05-11.05
		L309.253,197.513z M258.939,114.023c0.624-20.959,16.19-46.411,47.59-77.81c13.679-13.679,31.866-21.213,51.212-21.213
		s37.533,7.534,51.212,21.213c13.68,13.679,21.214,31.867,21.214,51.212c0,19.345-7.534,37.533-21.214,51.212
		c-32.036,32.037-57.923,47.61-79.139,47.61c-18.357,0-32.905-12.018-45.892-25.004c-8.955-8.954-16.125-17.413-20.454-26.453
		c-0.136-0.356-0.292-0.705-0.484-1.041C260.192,127.575,258.728,121.114,258.939,114.023z M254.934,150.08
		c5.165,7.904,11.654,15.043,18.381,21.771c6.719,6.719,13.854,13.216,21.767,18.387l-12.727,11.93l-39.356-39.356L254.934,150.08z
		 M44.014,425.589c-6.735,6.314-17.522,6.137-24.049-0.388c-6.526-6.526-6.7-17.314-0.388-24.047l97.425-103.932l30.943,30.943
		L44.014,425.589z M216.032,375.037l-26.306-26.306l22.981-22.981c2.929-2.929,2.929-7.678,0-10.606
		c-2.93-2.929-7.678-2.929-10.607,0l-22.981,22.981l-108.99-108.99l108.99-108.99l108.989,108.99l-64.795,64.795
		c-2.929,2.929-2.929,7.678,0,10.606c1.465,1.464,3.385,2.197,5.304,2.197s3.839-0.732,5.304-2.197l64.795-64.795l26.306,26.306
		L216.032,375.037z"/>
	<path d="M291.423,107.565c2.133,0,4.14-0.83,5.657-2.343c3.119-3.12,3.119-8.195-0.007-11.321c-1.511-1.506-3.518-2.336-5.65-2.336
		s-4.14,0.83-5.657,2.343c-3.119,3.119-3.119,8.194,0.007,11.321C287.284,106.736,289.291,107.565,291.423,107.565z"/>
	<path d="M291.494,119.62c-4.064,1.689-6.004,6.374-4.321,10.446c1.242,3.001,4.144,4.941,7.393,4.941
		c1.054,0,2.083-0.205,3.069-0.613c4.064-1.689,6.004-6.374,4.321-10.446c-1.242-3.001-4.144-4.941-7.393-4.941
		C293.509,119.007,292.48,119.212,291.494,119.62z"/>
</g>
</svg>