<?xml version="1.0" encoding="iso-8859-1"?>
<!-- Uploaded to: SVG Repo, www.svgrepo.com, Generator: SVG Repo Mixer Tools -->
<svg fill="#000000" height="800px" width="800px" version="1.1" id="Layer_1" xmlns="http://www.w3.org/2000/svg" xmlns:xlink="http://www.w3.org/1999/xlink" 
	 viewBox="0 0 512 512" xml:space="preserve">
<g>
	<g>
		<path d="M478.609,155.826H33.391C14.95,155.826,0,170.777,0,189.217v133.565c0,18.441,14.95,33.391,33.391,33.391h445.217
			c18.441,0,33.391-14.95,33.391-33.391V189.217C512,170.777,497.05,155.826,478.609,155.826z M164.174,269.368l-16.696,28.917
			l-23.152-13.368v26.735H90.935v-26.735L67.78,298.285l-16.696-28.917L74.238,256l-23.152-13.368l16.696-28.917l23.154,13.368
			v-26.735h33.391v26.735l23.152-13.368l16.696,28.917L141.02,256L164.174,269.368z M312.545,269.368l-16.696,28.917l-23.152-13.368
			v26.735h-33.391v-26.735l-23.155,13.368l-16.696-28.917L222.609,256l-23.152-13.368l16.696-28.917l23.154,13.368v-26.735h33.391
			v26.735l23.152-13.368l16.696,28.917L289.391,256L312.545,269.368z M460.915,269.368l-16.696,28.917l-23.152-13.368v26.735
			h-33.391v-26.735l-23.154,13.368l-16.696-28.917L370.981,256l-23.154-13.368l16.696-28.917l23.154,13.368v-26.735h33.391v26.735
			l23.152-13.368l16.696,28.917L437.762,256L460.915,269.368z"/>
	</g>
</g>
</svg>