<?xml version="1.0" ?>
<!-- Uploaded to: SVG Repo, www.svgrepo.com, Generator: SVG Repo Mixer Tools -->
<svg width="800px" height="800px" viewBox="0 0 64 64" id="svg5" version="1.1" xml:space="preserve" xmlns="http://www.w3.org/2000/svg" xmlns:svg="http://www.w3.org/2000/svg">
<defs id="defs2"/>
<g id="layer1" transform="translate(-288,-192)">
<path d="m 298,201 h 49 v 6 h -49 z" id="path10303" style="fill:#3e4f59;fill-opacity:1;fill-rule:evenodd;stroke-width:2;stroke-linecap:round;stroke-linejoin:round;stroke-miterlimit:4.1"/>
<path d="m 298,207 h 49 v 40 h -49 z" id="path10305" style="fill:#acbec2;fill-opacity:1;fill-rule:evenodd;stroke-width:2.00001;stroke-linecap:round;stroke-linejoin:round;stroke-miterlimit:4.1"/>
<path d="m 298,207 v 40 h 29.76953 a 28.484051,41.392605 35.599482 0 0 18.625,-40 z" id="path10307" style="fill:#e8edee;fill-opacity:1;fill-rule:evenodd;stroke:none;stroke-width:2.00002;stroke-linecap:round;stroke-linejoin:round;stroke-miterlimit:4.1"/>
<path d="m 300,200 c -1.64501,0 -3,1.355 -3,3 v 40 c 0,0.55229 0.44772,1 1,1 0.55228,0 1,-0.44771 1,-1 v -40 c 0,-0.56413 0.43587,-1 1,-1 h 45 c 0.56413,0 1,0.43587 1,1 v 3 h -42 c -0.55228,0 -1,0.44772 -1,1 0,0.55229 0.44772,1 1,1 h 42 v 37 c 0,0.56413 -0.43587,1 -1,1 h -49 c -0.55228,0 -1,0.44772 -1,1 0,0.55229 0.44772,1 1,1 h 49 c 1.64501,0 3,-1.35499 3,-3 0,-14 0,-28 0,-42 0,-1.645 -1.35499,-3 -3,-3 z" id="path10309" style="color:#000000;fill:#000000;fill-rule:evenodd;stroke-linecap:round;stroke-linejoin:round;stroke-miterlimit:4.1"/>
<path d="m 343,203 c -0.55228,0 -1,0.44772 -1,1 0,0.55229 0.44772,1 1,1 0.55228,0 1,-0.44771 1,-1 0,-0.55228 -0.44772,-1 -1,-1 z" id="path10311" style="color:#000000;fill:#ed7161;fill-opacity:1;fill-rule:evenodd;stroke-linecap:round;stroke-linejoin:round;stroke-miterlimit:4.1;-inkscape-stroke:none"/>
<path d="m 339,203 c -0.55228,0 -1,0.44772 -1,1 0,0.55229 0.44772,1 1,1 0.55228,0 1,-0.44771 1,-1 0,-0.55228 -0.44772,-1 -1,-1 z" id="path10313" style="color:#000000;fill:#ecba16;fill-opacity:1;fill-rule:evenodd;stroke-linecap:round;stroke-linejoin:round;stroke-miterlimit:4.1;-inkscape-stroke:none"/>
<path d="m 335,203 c -0.55228,0 -1,0.44772 -1,1 0,0.55229 0.44772,1 1,1 0.55228,0 1,-0.44771 1,-1 0,-0.55228 -0.44772,-1 -1,-1 z" id="path10315" style="color:#000000;fill:#42b05c;fill-opacity:1;fill-rule:evenodd;stroke-linecap:round;stroke-linejoin:round;stroke-miterlimit:4.1;-inkscape-stroke:none"/>
<path d="m 293,246 a 1,1 0 0 0 -1,1 1,1 0 0 0 1,1 1,1 0 0 0 1,-1 1,1 0 0 0 -1,-1 z" id="path10317" style="color:#000000;fill:#000000;fill-rule:evenodd;stroke-linecap:round;stroke-linejoin:round;stroke-miterlimit:4.1;-inkscape-stroke:none"/>
<path d="m 301,206 c -0.55228,0 -1,0.44772 -1,1 0,0.55229 0.44772,1 1,1 0.55228,0 1,-0.44771 1,-1 0,-0.55228 -0.44772,-1 -1,-1 z" id="path10319" style="color:#000000;fill:#000000;fill-rule:evenodd;stroke-linecap:round;stroke-linejoin:round;stroke-miterlimit:4.1;-inkscape-stroke:none"/>
<path d="m 324.5,218.40567 c 0,2.53738 -2.05695,4.59433 -4.59433,4.59433 -2.53738,0 -4.59433,-2.05695 -4.59433,-4.59433 0,-2.53738 2.05695,-4.59433 4.59433,-4.59433 1.21065,0 2.31193,0.46826 3.1326,1.23355 0.89936,0.83866 1.46173,2.03405 1.46173,3.36078 z" id="path8029" style="fill:#0075d3;fill-opacity:1;fill-rule:evenodd;stroke:none;stroke-width:2;stroke-linecap:round;stroke-linejoin:round;stroke-miterlimit:4.1"/>
<path d="m 318.87305,213.92773 c -2.03973,0.46886 -3.5625,2.29649 -3.5625,4.47852 0,2.53738 2.05832,4.59375 4.5957,4.59375 0.19422,0 0.38438,-0.0137 0.57227,-0.0371 1.06237,-0.99972 1.72656,-2.41827 1.72656,-3.99219 0,-1.58292 -0.67111,-3.00916 -1.74414,-4.00976 -0.4621,-0.43093 -0.99812,-0.78163 -1.58789,-1.03321 z" id="path7024" style="fill:#0588e2;fill-opacity:1;fill-rule:evenodd;stroke:none;stroke-width:2;stroke-linecap:round;stroke-linejoin:round;stroke-miterlimit:4.1"/>
<path d="m 319.90625,212.81055 c -3.07782,0 -5.5957,2.51788 -5.5957,5.5957 0,3.07782 2.51788,5.59375 5.5957,5.59375 1.50193,0 2.8697,-0.59915 3.87695,-1.57031 l 2.9375,2.35156 c 0.43108,0.34413 1.05941,0.27422 1.4043,-0.15625 0.34546,-0.43139 0.27548,-1.06121 -0.15625,-1.40625 l -3.01367,-2.41211 c 0.34886,-0.72847 0.54492,-1.54219 0.54492,-2.40039 a 1,1 0 0 0 -1,-1 1,1 0 0 0 -1,1 c 0,1.99694 -1.59681,3.59375 -3.59375,3.59375 -1.99694,0 -3.5957,-1.59681 -3.5957,-3.59375 0,-1.99694 1.59876,-3.5957 3.5957,-3.5957 0.95279,0 1.80609,0.36511 2.44922,0.96484 a 1,1 0 0 0 1.41406,-0.0488 1,1 0 0 0 -0.0488,-1.41211 c -0.99821,-0.93085 -2.34595,-1.5039 -3.81445,-1.5039 z" id="path8031" style="color:#000000;fill:#000000;fill-rule:evenodd;stroke-linecap:round;stroke-linejoin:round;stroke-miterlimit:4.1;-inkscape-stroke:none"/>
<path d="m 308.69179,229.00001 h 27.61649 c 2.20914,0 4,1.79086 4,4 0,2.20914 -1.79086,3.99999 -4,3.99999 h -27.61649 c -2.20914,0 -4,-1.79086 -4,-4 0,-2.20914 1.79086,-3.99999 4,-3.99999 z" id="rect8013" style="fill:#ffa221;fill-opacity:1;fill-rule:evenodd;stroke:none;stroke-width:2;stroke-linecap:round;stroke-linejoin:round;stroke-miterlimit:4.1"/>
<path d="m 308.69141,229 c -2.20914,0 -4,1.79086 -4,4 0,0.26459 0.0271,0.5232 0.0762,0.77344 h 27.29297 c 2.20913,0 4,-1.79086 4,-4 0,-0.2646 -0.0252,-0.5232 -0.0742,-0.77344 z" id="path7107" style="fill:#ffc343;fill-opacity:1;fill-rule:evenodd;stroke:none;stroke-width:2;stroke-linecap:round;stroke-linejoin:round;stroke-miterlimit:4.1"/>
<path d="m 309,231.10352 a 1,1 0 0 0 -1,1 v 1.79296 a 1,1 0 0 0 1,1 1,1 0 0 0 1,-1 v -1.79296 a 1,1 0 0 0 -1,-1 z" id="path8000" style="color:#000000;fill:#000000;fill-rule:evenodd;stroke-linecap:round;stroke-linejoin:round;stroke-miterlimit:4.1;-inkscape-stroke:none"/>
<path d="m 308.69141,228 c -2.74958,0 -5,2.25042 -5,5 0,2.74958 2.25042,5 5,5 H 332 a 1,1 0 0 0 1,-1 1,1 0 0 0 -1,-1 h -23.30859 c -1.6687,0 -3,-1.3313 -3,-3 0,-1.6687 1.33129,-3 3,-3 a 1,1 0 0 0 1,-1 1,1 0 0 0 -1,-1 z M 313,228 a 1,1 0 0 0 -1,1 1,1 0 0 0 1,1 h 23.30859 c 1.6687,0 3,1.3313 3,3 0,1.6687 -1.33129,3 -3,3 a 1,1 0 0 0 -1,1 1,1 0 0 0 1,1 c 2.74958,0 5,-2.25042 5,-5 0,-2.74958 -2.25042,-5 -5,-5 z" id="path14121" style="color:#000000;fill:#000000;fill-rule:evenodd;stroke-linecap:round;stroke-linejoin:round;stroke-miterlimit:4.1;-inkscape-stroke:none"/>
</g>
</svg>