<?xml version='1.0' encoding='iso-8859-1'?>
<!DOCTYPE svg PUBLIC '-//W3C//DTD SVG 1.1//EN' 'http://www.w3.org/Graphics/SVG/1.1/DTD/svg11.dtd'>
<!-- Uploaded to: SVG Repo, www.svgrepo.com, Generator: SVG Repo Mixer Tools -->
<svg fill="#000000" height="800px" width="800px" version="1.1" xmlns="http://www.w3.org/2000/svg" viewBox="0 0 297 297" xmlns:xlink="http://www.w3.org/1999/xlink" enable-background="new 0 0 297 297">
  <g>
    <path d="m220.037,71.565c19.73,0 35.783-16.052 35.783-35.783s-16.053-35.782-35.783-35.782-35.783,16.052-35.783,35.783 16.052,35.782 35.783,35.782zm0-54.594c10.372-3.55271e-15 18.811,8.439 18.811,18.811s-8.439,18.811-18.811,18.811c-10.372,0-18.811-8.439-18.811-18.811s8.439-18.811 18.811-18.811z"/>
    <path d="m258.882,80.732c-0.064-0.021-9.825-3.017-9.825-3.017-4.318-1.327-8.916,0.964-10.462,5.206l-10.615,29.125c0,0-3.789-16.581-3.961-16.914l6.595-11.424c0.802-1.39 0.802-3.102 0-4.492-0.803-1.39-2.286-2.246-3.891-2.246h-13.372c-1.605,0-3.088,0.856-3.891,2.246-0.802,1.39-0.802,3.102 0,4.492l6.595,11.424c-0.171,0.333-3.961,16.914-3.961,16.914l-10.615-29.125c-1.546-4.242-6.146-6.535-10.462-5.206 0,0-9.761,2.996-9.825,3.017-14.495,4.831-24.235,18.343-24.235,33.623v58.853c0,1.656 0.485,3.276 1.394,4.66l20.255,30.823v79.823c0,4.686 3.799,8.486 8.486,8.486h65.889c4.686,0 8.486-3.799 8.486-8.486v-79.823l20.255-30.823c0.91-1.384 1.394-3.004 1.394-4.66v-58.853c0-15.28-9.739-28.792-24.234-33.623zm7.263,89.938l-20.255,30.823c-0.91,1.384-1.394,3.004-1.394,4.66v73.876h-48.918v-73.876c0-1.656-0.485-3.276-1.394-4.66l-20.255-30.823v-56.314c0-7.933 5.035-14.951 12.541-17.493l1.822-.56 23.771,65.222c1.222,3.35 4.407,5.579 7.973,5.579 3.566,0 6.751-2.23 7.973-5.579l23.771-65.222 1.822,.56c7.506,2.542 12.541,9.56 12.541,17.493v56.314z"/>
    <path d="m161.987,43.707c-1.313-3.17-4.408-5.238-7.839-5.238h-18.018c-1.49-14.78-14.003-26.355-29.169-26.355h-63.76c-16.165,0-29.317,13.152-29.317,29.317v45.058c0,16.165 13.152,29.317 29.317,29.317h63.76c16.165,0 29.317-13.152 29.317-29.317v-9.663l23.871-23.87c2.426-2.429 3.152-6.078 1.838-9.249zm-40.196,23.603c-1.591,1.592-2.485,3.751-2.485,6.001v13.178c0,6.807-5.539,12.345-12.345,12.345h-63.76c-6.807,0-12.345-5.539-12.345-12.345v-45.059c0-6.807 5.539-12.345 12.345-12.345h63.76c6.807,0 12.345,5.539 12.345,12.345v5.524c0,4.686 3.799,8.486 8.486,8.486h5.87l-11.871,11.87z"/>
  </g>
</svg>