<?xml version="1.0" encoding="utf-8"?><!-- Uploaded to: SVG Repo, www.svgrepo.com, Generator: SVG Repo Mixer Tools -->
<svg width="800px" height="800px" viewBox="0 0 64 64" fill="none" xmlns="http://www.w3.org/2000/svg">
<path d="M56.381 43.813C55.8506 43.813 55.3419 44.0237 54.9668 44.3988C54.5917 44.7738 54.381 45.2826 54.381 45.813V47.313C54.381 47.976 54.1176 48.6119 53.6488 49.0807C53.1799 49.5496 52.5441 49.813 51.881 49.813H12.881C12.218 49.813 11.5821 49.5496 11.1132 49.0807C10.6444 48.6119 10.381 47.976 10.381 47.313V45.813C10.381 45.2826 10.1703 44.7738 9.7952 44.3988C9.42012 44.0237 8.91144 43.813 8.38101 43.813C7.85058 43.813 7.34187 44.0237 6.9668 44.3988C6.59172 44.7738 6.38101 45.2826 6.38101 45.813V47.313C6.38313 49.0362 7.06861 50.6883 8.28714 51.9068C9.50567 53.1254 11.1578 53.8109 12.881 53.813H51.881C53.6043 53.8109 55.2563 53.1254 56.4749 51.9068C57.6934 50.6883 58.3789 49.0362 58.381 47.313V45.813C58.381 45.2826 58.1703 44.7738 57.7952 44.3988C57.4201 44.0237 56.9114 43.813 56.381 43.813Z" fill="#999999"/>
<path d="M24.491 20.477L30.38 16.549V39.813C30.38 40.3434 30.5907 40.8521 30.9658 41.2272C31.3409 41.6022 31.8496 41.813 32.38 41.813C32.9104 41.813 33.4191 41.6022 33.7942 41.2272C34.1693 40.8521 34.38 40.3434 34.38 39.813V16.549L40.272 20.477C40.5996 20.696 40.9849 20.8129 41.379 20.813C41.7086 20.8132 42.0332 20.732 42.3238 20.5766C42.6145 20.4211 42.8622 20.1963 43.045 19.922C43.3391 19.4807 43.446 18.9408 43.3421 18.4208C43.2382 17.9008 42.9321 17.4433 42.491 17.149L33.5 11.155H33.493L33.48 11.149C33.3351 11.0563 33.1787 10.9827 33.015 10.93C32.977 10.917 32.94 10.905 32.901 10.895C32.7325 10.8467 32.5583 10.8212 32.383 10.819C32.208 10.8212 32.0342 10.8467 31.866 10.895C31.827 10.905 31.79 10.917 31.751 10.93C31.5874 10.9831 31.4312 11.0567 31.286 11.149L31.274 11.155H31.267L22.278 17.149C21.8367 17.4431 21.5304 17.9005 21.4263 18.4205C21.3222 18.9406 21.4289 19.4806 21.723 19.922C22.0171 20.3618 22.4736 20.6672 22.9924 20.7712C23.5112 20.8752 24.05 20.7694 24.491 20.477Z" fill="#000000"/>
</svg>