<?xml version="1.0" standalone="no"?>
<!DOCTYPE svg PUBLIC "-//W3C//DTD SVG 20010904//EN"
 "http://www.w3.org/TR/2001/REC-SVG-20010904/DTD/svg10.dtd">
<svg version="1.0" xmlns="http://www.w3.org/2000/svg"
 width="200.000000pt" height="200.000000pt" viewBox="0 0 200.000000 200.000000"
 preserveAspectRatio="xMidYMid meet">

<g transform="translate(0.000000,200.000000) scale(0.100000,-0.100000)"
fill="#000000" stroke="none">
<path d="M20 1425 c-13 -16 -6 -20 34 -15 10 1 32 -11 49 -27 l31 -28 -25 32
c-13 18 -31 32 -39 32 -9 1 -21 6 -26 11 -8 8 -15 6 -24 -5z"/>
<path d="M195 1420 c3 -5 11 -10 16 -10 6 0 7 5 4 10 -3 6 -11 10 -16 10 -6 0
-7 -4 -4 -10z"/>
<path d="M230 1405 c0 -9 123 -65 140 -64 8 0 -1 6 -21 14 -19 7 -54 22 -77
34 -23 12 -42 19 -42 16z"/>
<path d="M660 1390 c-9 -6 -10 -10 -3 -10 6 0 15 5 18 10 8 12 4 12 -15 0z"/>
<path d="M546 1318 l-27 -43 26 30 c43 50 46 55 37 55 -5 0 -21 -19 -36 -42z"/>
<path d="M435 1340 l-50 -7 45 -1 c25 -1 52 3 60 8 8 5 11 9 5 8 -5 -1 -32 -4
-60 -8z"/>
<path d="M160 1266 c0 -2 8 -10 18 -17 15 -13 16 -12 3 4 -13 16 -21 21 -21
13z"/>
<path d="M1399 1245 c-1 -11 -2 -31 -1 -45 1 -21 -1 -19 -13 10 -23 58 -17 13
20 -149 19 -85 35 -156 35 -158 0 -3 10 -3 22 -1 20 3 24 14 43 130 11 69 23
129 26 133 3 3 9 -15 12 -40 4 -25 14 -86 23 -136 15 -81 19 -90 38 -87 18 3
24 20 52 143 47 215 47 212 31 195 -8 -8 -24 -64 -36 -125 -29 -143 -30 -145
-47 -145 -11 0 -14 -7 -10 -22 6 -23 6 -23 -6 0 -9 18 -9 28 -1 41 9 14 6 48
-9 139 -19 106 -23 119 -38 110 -10 -7 -22 -43 -33 -112 -27 -155 -28 -156
-42 -156 -7 0 -16 -6 -18 -12 -4 -10 -6 -10 -6 0 -1 7 3 21 8 30 5 11 -1 63
-19 147 -16 72 -29 121 -31 110z m19 -145 l0 -25 -8 25 c-4 14 -8 36 -8 50 l0
25 8 -25 c4 -14 8 -36 8 -50z m139 28 c-3 -7 -5 -2 -5 12 0 14 2 19 5 13 2 -7
2 -19 0 -25z m21 -103 c0 -25 -2 -24 -9 10 -10 51 -10 92 1 50 4 -16 8 -43 8
-60z m-151 13 c-3 -7 -5 -2 -5 12 0 14 2 19 5 13 2 -7 2 -19 0 -25z m10 -40
c-3 -8 -6 -5 -6 6 -1 11 2 17 5 13 3 -3 4 -12 1 -19z m27 -73 c-4 -8 -8 -15
-10 -15 -2 0 -4 7 -4 15 0 8 4 15 10 15 5 0 7 -7 4 -15z"/>
<path d="M587 1235 c-9 -7 -17 -16 -17 -20 0 -27 -84 -304 -91 -299 -5 3 -9 1
-9 -5 0 -5 9 -9 19 -8 14 1 21 11 26 36 7 36 35 86 35 62 0 -9 12 -12 41 -9
l42 3 14 -47 c11 -37 18 -48 34 -48 17 0 20 4 15 23 -4 12 -26 90 -49 174 -39
138 -44 150 -60 138z m13 -36 c0 -6 -4 -7 -10 -4 -5 3 -10 11 -10 16 0 6 5 7
10 4 6 -3 10 -11 10 -16z m-2 -78 c7 -33 19 -61 27 -65 8 -3 12 -12 9 -21 -4
-11 -20 -15 -56 -15 -40 0 -48 3 -40 13 6 7 17 43 24 80 7 37 15 67 18 67 3 0
11 -27 18 -59z m21 4 c0 -5 -4 -3 -9 5 -5 8 -9 22 -9 30 0 16 17 -16 18 -35z
m14 -35 c3 -11 1 -18 -4 -14 -5 3 -9 12 -9 20 0 20 7 17 13 -6z m40 -159 c-6
-8 -11 5 -17 44 l-6 40 13 -40 c8 -22 12 -42 10 -44z"/>
<path d="M890 1240 c0 -6 -27 -10 -62 -10 l-63 0 3 -65 c2 -36 8 -65 14 -65 5
0 8 24 7 57 l-3 57 57 -3 c52 -2 57 -1 57 18 0 12 -2 21 -5 21 -3 0 -5 -4 -5
-10z"/>
<path d="M976 1234 c-10 -27 -7 -294 4 -294 6 0 10 58 10 155 0 85 -2 155 -4
155 -2 0 -7 -7 -10 -16z"/>
<path d="M1310 1240 c0 -6 -28 -10 -65 -10 l-66 0 2 -152 c1 -103 -3 -154 -10
-156 -6 -2 -11 -8 -11 -13 0 -5 38 -9 85 -9 85 0 85 0 85 26 0 22 -2 24 -14
11 -9 -9 -33 -14 -63 -13 l-48 1 -3 49 c-5 84 0 92 55 88 46 -3 48 -3 50 24 1
23 -1 25 -8 11 -7 -12 -23 -17 -52 -17 l-43 0 -2 65 -3 65 59 0 c51 0 60 3 65
20 3 11 1 20 -4 20 -5 0 -9 -4 -9 -10z"/>
<path d="M1812 1224 c-36 -25 -54 -72 -54 -139 0 -64 19 -118 46 -128 12 -5
11 1 -4 26 -15 24 -20 50 -20 105 0 69 2 76 30 104 25 24 36 29 58 23 32 -7
51 -29 59 -67 3 -16 10 -28 15 -28 5 0 7 8 4 18 -3 9 -8 29 -12 45 -12 52 -76
74 -122 41z"/>
<path d="M1941 1187 c10 -28 18 -70 19 -93 0 -58 -27 -141 -53 -159 -50 -35
-114 -5 -148 69 -21 47 -26 22 -5 -28 21 -51 51 -74 99 -74 76 -1 111 40 122
145 8 65 -13 160 -38 182 -10 8 -9 -3 4 -42z"/>
<path d="M874 1089 c-4 -7 -27 -10 -58 -7 l-51 4 3 -77 c2 -47 -1 -79 -7 -84
-18 -10 -13 -25 8 -25 17 0 20 8 20 73 0 39 0 77 0 82 1 6 22 9 50 7 45 -4 50
-2 48 17 -1 24 -3 25 -13 10z"/>
<path d="M963 923 c-36 -12 -4 -23 67 -23 70 0 80 2 79 18 0 10 -3 12 -6 4 -2
-6 -10 -9 -16 -5 -13 8 -105 12 -124 6z"/>
<path d="M102 900 c0 -14 2 -19 5 -12 2 6 2 18 0 25 -3 6 -5 1 -5 -13z"/>
<path d="M1221 794 c0 -11 3 -14 6 -6 3 7 2 16 -1 19 -3 4 -6 -2 -5 -13z"/>
<path d="M1446 795 c4 -8 8 -15 10 -15 2 0 4 7 4 15 0 8 -4 15 -10 15 -5 0 -7
-7 -4 -15z"/>
<path d="M1391 774 c0 -11 3 -14 6 -6 3 7 2 16 -1 19 -3 4 -6 -2 -5 -13z"/>
<path d="M130 771 c0 -6 4 -13 10 -16 6 -3 7 1 4 9 -7 18 -14 21 -14 7z"/>
<path d="M522 760 c0 -14 2 -19 5 -12 2 6 2 18 0 25 -3 6 -5 1 -5 -13z"/>
<path d="M150 719 c0 -5 5 -7 10 -4 6 3 10 8 10 11 0 2 -4 4 -10 4 -5 0 -10
-5 -10 -11z"/>
<path d="M981 704 c0 -11 3 -14 6 -6 3 7 2 16 -1 19 -3 4 -6 -2 -5 -13z"/>
<path d="M115 690 c-3 -6 1 -7 9 -4 18 7 21 14 7 14 -6 0 -13 -4 -16 -10z"/>
<path d="M751 684 c0 -11 3 -14 6 -6 3 7 2 16 -1 19 -3 4 -6 -2 -5 -13z"/>
<path d="M1285 680 c3 -5 8 -10 11 -10 2 0 4 5 4 10 0 6 -5 10 -11 10 -5 0 -7
-4 -4 -10z"/>
<path d="M32 664 c10 -10 20 -16 22 -13 3 3 -5 11 -17 18 -21 13 -21 12 -5 -5z"/>
<path d="M820 671 c0 -6 4 -13 10 -16 6 -3 7 1 4 9 -7 18 -14 21 -14 7z"/>
<path d="M1070 671 c0 -6 4 -13 10 -16 6 -3 7 1 4 9 -7 18 -14 21 -14 7z"/>
<path d="M1526 667 c3 -10 9 -15 12 -12 3 3 0 11 -7 18 -10 9 -11 8 -5 -6z"/>
<path d="M212 410 c0 -19 2 -27 5 -17 2 9 2 25 0 35 -3 9 -5 1 -5 -18z"/>
</g>
</svg>
