<?xml version="1.0" standalone="no"?>
<!DOCTYPE svg PUBLIC "-//W3C//DTD SVG 20010904//EN"
 "http://www.w3.org/TR/2001/REC-SVG-20010904/DTD/svg10.dtd">
<svg version="1.0" xmlns="http://www.w3.org/2000/svg"
 width="1062.000000pt" height="1062.000000pt" viewBox="0 0 1062.000000 1062.000000"
 preserveAspectRatio="xMidYMid meet">

<g transform="translate(0.000000,1062.000000) scale(0.100000,-0.100000)"
fill="#000000" stroke="none">
<path d="M4546 10215 l-16 -25 -235 0 -234 0 2 -345 c2 -268 5 -345 15 -345 6
0 12 -5 12 -11 0 -20 -29 -39 -59 -39 -20 0 -31 -5 -31 -14 0 -24 22 -31 36
-12 12 16 13 16 17 -1 4 -16 5 -16 6 0 0 9 6 17 12 17 5 0 7 -4 4 -10 -3 -5
-1 -10 4 -10 6 0 11 6 11 13 0 8 3 8 9 -2 15 -23 39 -21 45 3 8 31 2 316 -6
316 -5 0 -8 -72 -8 -159 0 -88 -3 -162 -7 -164 -12 -8 -4 325 9 350 13 26 44
42 34 18 -3 -8 -1 -15 4 -15 6 0 10 10 11 23 0 21 1 21 9 2 l9 -20 1 20 1 20
9 -20 9 -20 1 20 c2 17 3 16 10 -5 l8 -25 2 25 2 25 8 -25 8 -25 1 24 1 24 20
-23 20 -23 1 24 1 24 8 -25 8 -25 2 25 2 25 8 -25 8 -25 1 24 1 24 20 -23 20
-23 1 24 1 24 8 -25 8 -25 2 25 2 25 8 -25 8 -25 2 25 2 25 8 -25 8 -25 2 25
c1 14 4 19 7 13 2 -7 11 -13 19 -13 9 0 12 5 9 10 -3 6 2 10 12 11 11 0 13 3
5 6 -8 3 -5 10 10 22 14 12 18 22 13 31 -6 10 -14 6 -31 -15 l-23 -29 -190 -1
c-166 -1 -189 1 -178 14 9 11 9 15 0 18 -7 3 -13 9 -13 14 0 6 7 6 18 0 23
-12 62 -3 62 13 0 7 -7 21 -15 32 -11 15 -15 16 -16 4 -1 -8 -5 21 -8 65 -7
94 -5 113 17 142 20 25 34 27 207 24 83 -2 121 -6 105 -11 -21 -7 -19 -8 15
-8 22 0 34 2 28 5 -18 7 -16 20 2 20 8 0 15 -6 15 -13 0 -22 28 -4 34 22 4 13
13 24 21 24 8 0 15 9 15 20 0 27 -14 25 -34 -5z m-451 -55 c3 -5 1 -10 -4 -10
-6 0 -11 5 -11 10 0 6 2 10 4 10 3 0 8 -4 11 -10z m-8 -82 c-3 -7 -5 -2 -5 12
0 14 2 19 5 13 2 -7 2 -19 0 -25z m3 -129 c0 -6 -4 -7 -10 -4 -5 3 -10 11 -10
16 0 6 5 7 10 4 6 -3 10 -11 10 -16z m0 -29 c0 -5 -4 -10 -10 -10 -5 0 -10 5
-10 10 0 6 5 10 10 10 6 0 10 -4 10 -10z m10 -112 c0 -7 -5 -20 -10 -28 -8
-12 -10 -9 -10 13 0 15 5 27 10 27 6 0 10 -6 10 -12z"/>
<path d="M4870 10215 c-8 -16 -22 -25 -37 -25 -23 0 -32 -23 -13 -35 6 -4 10
-120 10 -316 0 -199 4 -309 10 -309 6 0 10 -7 10 -15 0 -9 -6 -12 -15 -9 -13
5 -15 54 -18 328 l-2 321 -3 -352 -2 -352 -27 -3 c-34 -4 -38 -32 -5 -34 14
-1 22 5 23 15 0 12 2 11 9 -4 l9 -20 1 20 c1 15 3 17 8 5 7 -15 52 -24 52 -9
0 4 -10 10 -22 12 -20 4 -20 4 4 6 18 1 28 -5 31 -16 4 -15 5 -15 7 2 l1 20 9
-20 c7 -17 9 -17 9 -2 1 15 17 17 182 17 145 0 183 -3 195 -15 19 -19 44 -8
43 19 0 15 -2 17 -7 6 -7 -16 -32 -25 -32 -12 0 4 9 14 20 22 11 8 20 24 20
35 -1 18 -3 18 -23 -7 l-22 -27 -198 -3 c-108 -2 -197 0 -197 5 0 4 -5 7 -11
7 -5 0 -8 -4 -5 -9 3 -4 -6 -6 -19 -3 -14 2 -25 9 -25 16 0 12 45 36 67 36 11
0 11 5 3 20 -7 14 -10 133 -8 365 3 350 0 380 -32 320z m12 -37 c-7 -7 -12 -8
-12 -2 0 14 12 26 19 19 2 -3 -1 -11 -7 -17z m-35 -450 c-1 -84 -3 -16 -3 152
0 168 2 236 3 153 2 -84 2 -222 0 -305z m39 376 l1 -49 -4 48 c-2 26 -8 45
-14 42 -5 -4 -9 -1 -9 5 0 7 6 10 13 8 7 -3 12 -24 13 -54z m3 -459 c-1 -55
-6 -95 -11 -95 -6 0 -8 10 -4 23 3 12 6 55 6 95 0 39 2 72 5 72 4 0 5 -43 4
-95z m-62 -177 c-3 -8 -6 -5 -6 6 -1 11 2 17 5 13 3 -3 4 -12 1 -19z"/>
<path d="M6083 10215 l-18 -25 -217 -1 c-214 0 -217 -1 -221 -22 -4 -22 -4
-22 -6 1 0 12 -8 22 -16 22 -13 0 -15 -48 -15 -370 l0 -370 -30 0 c-23 0 -30
-4 -30 -20 0 -19 2 -20 30 -5 34 18 50 19 50 4 0 -5 -4 -7 -10 -4 -5 3 -10 1
-10 -4 0 -6 7 -11 15 -11 8 0 15 6 15 13 0 8 4 7 10 -3 8 -12 10 -10 11 10 1
22 2 23 7 5 4 -11 13 -21 21 -23 12 -3 12 -1 1 13 -12 14 7 16 205 15 212 -1
218 -1 241 21 13 12 24 30 24 38 -1 11 -8 8 -23 -12 l-23 -28 -227 1 c-217 1
-227 2 -227 21 0 10 5 20 10 20 6 1 16 2 23 3 13 2 11 29 -4 34 -5 2 -9 33 -9
68 0 41 -4 63 -10 59 -6 -4 -10 10 -10 35 0 25 4 39 10 35 6 -4 9 4 7 17 -1
17 4 24 21 26 12 2 22 10 22 18 0 8 5 14 10 14 6 0 10 6 10 14 0 21 -68 27
-74 6 -2 -8 -4 -3 -5 12 -1 22 5 29 24 34 14 3 25 10 25 14 0 14 -31 40 -41
35 -5 -4 -9 6 -9 20 0 14 3 24 8 22 9 -6 33 19 25 27 -3 3 -12 1 -20 -5 -11
-9 -13 -2 -13 39 0 28 5 54 10 57 6 3 10 15 10 26 0 13 4 18 12 13 8 -5 9 -2
5 10 -4 10 -1 19 6 22 26 10 325 9 324 -1 -1 -5 15 -11 36 -13 32 -3 37 0 37
17 0 11 9 25 20 31 20 11 28 50 11 50 -5 0 -18 -11 -28 -25z m-13 -50 c0 -8
-9 -15 -20 -15 -11 0 -20 4 -20 10 0 5 7 7 15 4 8 -4 15 -1 15 5 0 6 2 11 5
11 3 0 5 -7 5 -15z m-440 -46 c0 -5 -4 -9 -10 -9 -5 0 -10 7 -10 16 0 8 5 12
10 9 6 -3 10 -10 10 -16z m-10 -39 c0 -5 -4 -10 -10 -10 -5 0 -10 5 -10 10 0
6 5 10 10 10 6 0 10 -4 10 -10z m-10 -127 c-10 -15 -11 -14 -6 7 3 14 7 43 8
65 2 39 2 39 5 -7 2 -26 -1 -56 -7 -65z m15 -55 c9 -46 1 -154 -10 -150 -5 1
-8 14 -7 30 2 15 5 50 8 77 3 34 2 45 -4 36 -8 -10 -10 -7 -9 12 3 37 15 34
22 -5z m5 -252 c0 -3 -4 -8 -10 -11 -5 -3 -10 -1 -10 4 0 6 5 11 10 11 6 0 10
-2 10 -4z m0 -40 c0 -3 -4 -8 -10 -11 -5 -3 -10 -1 -10 4 0 6 5 11 10 11 6 0
10 -2 10 -4z m-23 -73 c-3 -10 -5 -4 -5 12 0 17 2 24 5 18 2 -7 2 -21 0 -30z
m20 -50 c-3 -10 -5 -2 -5 17 0 19 2 27 5 18 2 -10 2 -26 0 -35z m-20 -15 c-3
-8 -6 -5 -6 6 -1 11 2 17 5 13 3 -3 4 -12 1 -19z"/>
<path d="M6395 10210 c-9 -17 -13 -39 -10 -50 5 -15 2 -18 -17 -14 -13 2 -17
2 -10 -2 6 -3 12 -19 12 -35 0 -18 4 -28 10 -24 6 4 8 16 4 28 -6 19 -5 20 10
8 13 -11 16 -31 15 -105 -1 -64 -3 -82 -9 -61 -18 70 -80 229 -92 236 -7 5
-19 9 -25 9 -13 0 -7 -24 17 -75 8 -19 55 -152 152 -435 69 -203 100 -277 114
-277 8 0 14 6 14 14 0 19 28 16 33 -4 4 -17 5 -17 6 0 0 9 8 17 16 17 8 0 15
-8 16 -17 1 -12 4 -10 9 7 7 23 8 23 9 3 1 -27 35 -25 39 3 3 16 1 16 -7 4
-17 -25 -20 -7 -8 50 l12 55 6 -40 7 -40 0 45 c0 82 2 100 10 99 18 -3 32 2
32 12 0 6 -8 9 -19 6 -18 -4 -18 -3 0 57 10 33 19 69 19 79 0 9 5 17 10 17 6
0 10 11 10 24 0 13 4 26 10 28 5 2 11 19 12 40 2 20 6 34 11 31 4 -2 7 19 7
46 0 39 4 51 15 51 9 0 20 12 25 26 7 18 15 24 26 20 9 -3 18 -6 20 -6 2 0 4
-15 4 -32 0 -18 7 -55 16 -83 8 -27 28 -99 44 -160 16 -60 39 -146 51 -190 12
-44 24 -93 28 -109 3 -16 17 -36 31 -45 18 -12 22 -13 15 -2 -6 11 -4 13 8 8
10 -4 17 -1 18 6 0 7 4 3 9 -8 6 -13 9 -15 9 -5 1 13 2 13 11 0 8 -12 10 -12
11 5 l0 20 9 -20 c8 -19 9 -19 9 3 1 13 5 20 11 17 6 -3 10 3 10 14 0 12 4 21
8 21 5 0 14 25 21 55 8 35 16 53 23 49 6 -4 8 -3 5 3 -6 10 23 107 36 120 4 3
7 17 7 30 0 12 5 23 10 23 6 0 10 12 11 28 0 15 7 43 15 62 l14 35 -4 -37 c-3
-21 -1 -38 5 -38 5 0 9 17 9 38 0 21 6 44 13 51 10 11 10 13 0 7 -9 -5 -13 0
-13 14 0 12 5 18 10 15 6 -4 10 8 10 29 0 20 4 36 9 36 5 0 12 12 14 28 4 19
5 16 4 -10 -1 -20 2 -40 6 -44 4 -4 7 4 7 17 0 14 6 31 13 38 6 8 7 11 1 8 -8
-4 -11 7 -11 35 l0 41 12 -29 c12 -29 12 -28 20 28 9 73 4 87 -29 81 -30 -6
-34 -19 -8 -26 14 -4 14 -5 -3 -6 -20 -1 -46 -42 -44 -70 0 -11 3 -10 9 4 7
17 9 17 9 3 1 -10 -7 -26 -18 -37 -23 -23 -55 -116 -47 -137 3 -8 2 -12 -4 -9
-6 4 -10 -12 -10 -40 0 -34 -5 -51 -20 -63 -11 -10 -21 -31 -22 -49 -1 -18 -6
-33 -10 -33 -4 0 -8 -9 -8 -20 0 -11 -4 -28 -9 -38 -5 -9 -14 -37 -21 -62 -7
-25 -17 -56 -23 -70 l-11 -25 -4 26 c-3 25 -5 26 -42 19 -31 -6 -40 -4 -43 9
-3 9 -5 3 -6 -12 -1 -17 3 -26 9 -22 6 4 10 -12 10 -40 0 -31 -4 -45 -12 -43
-14 5 -36 63 -37 98 -1 14 -14 66 -30 115 -15 50 -34 113 -41 140 -6 28 -16
59 -20 70 -15 36 -22 79 -25 150 -2 39 -1 61 1 50 3 -11 9 -29 13 -40 20 -49
31 -94 31 -126 0 -23 3 -30 9 -20 6 9 10 3 14 -20 3 -19 11 -54 17 -79 7 -25
14 -64 17 -87 3 -24 9 -43 14 -43 5 0 9 -13 9 -30 0 -20 5 -30 15 -30 8 0 15
5 15 11 0 6 6 17 14 25 8 7 12 23 9 35 -4 16 -8 17 -14 7 -8 -12 -13 -4 -10
16 1 5 -3 13 -10 17 -8 4 -11 30 -10 69 1 36 -2 59 -8 56 -5 -3 -7 -16 -4 -29
3 -12 2 -19 -2 -15 -4 4 -8 34 -8 65 0 54 0 55 -7 18 -7 -37 -7 -37 -10 -10
-1 17 -1 48 -1 70 1 22 -3 47 -9 55 -8 11 -9 8 -5 -15 4 -24 3 -26 -4 -10 -5
11 -7 34 -4 51 3 18 0 35 -6 38 -6 4 -11 1 -12 -6 -1 -20 -18 24 -18 47 l0 20
9 -20 c7 -16 9 -17 9 -3 1 9 -2 24 -5 33 -6 13 -9 14 -16 3 -6 -9 -7 -6 -3 10
8 26 -3 102 -14 102 -4 0 -13 -11 -19 -25 -10 -21 -19 -25 -52 -25 -41 0 -46
-6 -42 -53 1 -10 -3 -15 -8 -12 -6 4 -10 -5 -10 -20 0 -15 -4 -34 -9 -44 -9
-17 -28 -84 -98 -351 -19 -74 -39 -140 -43 -145 -5 -6 -10 -31 -13 -55 l-4
-45 -1 51 c-2 38 -6 51 -17 51 -8 0 -15 -6 -15 -14 0 -7 5 -13 10 -13 6 0 10
-18 10 -40 0 -32 -4 -40 -17 -39 -11 0 -13 3 -5 6 6 2 12 9 12 14 0 6 -4 8 -9
4 -6 -3 -12 14 -14 37 -3 38 -4 37 -5 -14 -2 -48 -5 -56 -19 -53 -10 2 -22 4
-28 4 -5 1 -3 6 5 11 10 6 11 10 3 10 -7 0 -13 11 -13 24 0 13 -3 26 -7 28 -9
4 -43 91 -50 131 -3 15 -9 27 -13 27 -7 0 -14 24 -27 97 -3 18 -9 30 -14 27
-5 -3 -9 6 -9 20 0 14 -4 28 -10 31 -6 4 -9 46 -8 98 1 52 3 71 5 44 2 -26 8
-45 14 -42 5 4 9 -3 9 -14 0 -12 5 -21 10 -21 6 0 10 -13 10 -30 0 -16 5 -30
10 -30 6 0 10 -14 10 -30 0 -17 7 -44 14 -59 8 -15 12 -38 9 -49 -3 -13 -1
-22 6 -22 6 0 11 -13 11 -29 0 -17 5 -33 10 -36 6 -3 10 -23 10 -43 0 -26 3
-33 9 -23 7 11 11 4 14 -25 3 -31 4 -28 5 19 1 31 7 57 12 57 6 0 10 15 10 33
0 24 -3 28 -10 17 -8 -12 -10 -11 -10 8 0 12 -4 22 -9 22 -12 0 -22 43 -12 53
10 10 2 55 -10 63 -5 3 -9 14 -9 25 0 10 -4 19 -9 19 -6 0 -11 17 -13 38 -2
25 -8 37 -18 37 -11 0 -17 16 -21 60 -3 33 -7 51 -8 40 -1 -11 -8 2 -16 30 -7
27 -11 53 -9 57 2 4 -1 10 -7 14 -8 5 -9 3 -4 -7 6 -11 5 -12 -5 -2 -10 10
-11 15 -1 27 7 9 8 17 2 20 -5 3 -12 0 -14 -6 -3 -7 -3 4 0 25 7 45 -1 47 -22
7z m572 -42 c-3 -7 -5 -2 -5 12 0 14 2 19 5 13 2 -7 2 -19 0 -25z m-66 -2 c5
3 9 0 9 -7 0 -6 -8 -9 -20 -6 -10 3 -21 0 -23 -7 -2 -6 -7 -8 -11 -5 -4 4 1
15 11 24 11 11 18 14 21 6 2 -6 8 -9 13 -5z m26 -38 c-2 -13 -4 -5 -4 17 -1
22 1 32 4 23 2 -10 2 -28 0 -40z m520 -5 c-3 -10 -5 -4 -5 12 0 17 2 24 5 18
2 -7 2 -21 0 -30z m-560 -30 c-3 -10 -5 -2 -5 17 0 19 2 27 5 18 2 -10 2 -26
0 -35z m20 0 c-3 -10 -5 -2 -5 17 0 19 2 27 5 18 2 -10 2 -26 0 -35z m-60 -15
c-3 -7 -5 -2 -5 12 0 14 2 19 5 13 2 -7 2 -19 0 -25z m20 10 c-3 -8 -6 -5 -6
6 -1 11 2 17 5 13 3 -3 4 -12 1 -19z m60 -10 c-3 -8 -6 -5 -6 6 -1 11 2 17 5
13 3 -3 4 -12 1 -19z m430 -90 c-3 -8 -6 -5 -6 6 -1 11 2 17 5 13 3 -3 4 -12
1 -19z m-850 -80 c-3 -8 -6 -5 -6 6 -1 11 2 17 5 13 3 -3 4 -12 1 -19z m43
-120 c-1 -20 -3 -18 -15 11 -19 42 -19 46 0 27 8 -8 15 -25 15 -38z m577 -270
c-3 -7 -5 -2 -5 12 0 14 2 19 5 13 2 -7 2 -19 0 -25z m20 0 c-3 -7 -5 -2 -5
12 0 14 2 19 5 13 2 -7 2 -19 0 -25z m20 0 c-3 -7 -5 -2 -5 12 0 14 2 19 5 13
2 -7 2 -19 0 -25z m-20 -50 c-3 -7 -5 -2 -5 12 0 14 2 19 5 13 2 -7 2 -19 0
-25z m20 0 c-3 -7 -5 -2 -5 12 0 14 2 19 5 13 2 -7 2 -19 0 -25z"/>
<path d="M7477 10227 c-15 -10 -16 -19 -8 -52 l9 -40 1 34 c1 19 8 43 18 53
18 21 5 24 -20 5z"/>
<path d="M3453 10211 c-4 -17 -13 -21 -44 -21 -28 0 -39 -4 -39 -15 0 -9 6
-12 15 -9 12 5 14 0 9 -27 -9 -44 -14 -49 -14 -15 0 34 -23 30 -29 -5 -1 -13
-6 -26 -10 -29 -11 -9 -31 -50 -31 -65 0 -8 -4 -15 -10 -15 -5 0 -10 -14 -10
-31 0 -17 -4 -28 -10 -24 -10 6 -14 -6 -10 -39 1 -11 -3 -15 -9 -12 -7 4 -11
-1 -11 -13 0 -12 -4 -21 -10 -21 -5 0 -10 -9 -10 -20 0 -11 -6 -20 -12 -20 -9
0 -8 -4 2 -10 12 -7 12 -10 1 -10 -7 0 -11 -6 -7 -15 3 -9 0 -15 -8 -15 -18 0
-28 -39 -20 -78 4 -19 1 -32 -6 -37 -10 -6 -11 -1 -6 19 4 15 2 26 -3 26 -6 0
-14 -24 -17 -52 -6 -44 -9 -49 -15 -28 -6 21 -7 20 -8 -13 -1 -21 -5 -36 -10
-33 -9 6 -36 -71 -32 -93 1 -7 -2 -10 -7 -7 -5 3 -12 -3 -15 -13 -3 -13 -20
-24 -47 -31 -51 -14 -44 -25 16 -26 42 0 44 1 45 30 1 17 3 23 6 14 3 -10 11
-15 21 -12 15 5 15 4 0 -9 -23 -18 -23 -26 -1 -23 9 2 19 9 21 17 4 14 22 57
47 114 8 16 11 34 7 40 -4 5 -8 -2 -10 -17 -2 -16 -8 -28 -13 -28 -5 0 -9 -11
-9 -25 0 -14 -4 -25 -10 -25 -5 0 -10 -10 -10 -22 0 -17 -3 -19 -12 -10 -9 9
-8 16 5 30 9 10 17 31 17 45 0 15 5 27 10 27 6 0 10 7 10 16 0 8 7 22 15 30
13 14 15 13 16 -3 0 -14 2 -15 6 -3 3 8 11 18 17 22 7 5 6 8 -3 8 -11 0 -11 3
-1 15 8 10 29 15 59 14 25 0 40 -3 34 -6 -18 -7 -16 -20 2 -20 8 0 15 7 16 16
0 14 1 14 7 1 7 -15 52 -24 52 -9 0 4 -10 10 -22 12 -20 4 -19 4 5 6 19 1 27
-4 28 -16 0 -15 2 -15 9 2 6 15 9 16 9 4 1 -9 8 -16 16 -16 18 0 20 13 3 20
-7 3 -1 6 14 6 17 1 28 -5 31 -16 4 -15 5 -15 6 2 1 17 3 18 11 5 6 -10 10
-11 10 -2 0 6 11 12 25 12 14 0 25 -5 25 -11 0 -5 10 -9 23 -7 13 2 21 -2 19
-9 -1 -7 2 -13 8 -13 5 0 10 -9 10 -19 0 -27 57 -163 72 -172 16 -11 55 -11
61 -1 2 4 2 1 1 -5 -2 -7 5 -13 16 -13 12 0 20 7 21 18 0 14 2 14 7 2 8 -17
32 -25 32 -11 0 6 -4 13 -10 16 -5 3 -10 17 -10 30 0 13 -6 30 -13 37 -8 7
-12 19 -9 26 2 6 -3 15 -12 18 -9 3 -14 9 -11 13 2 4 -7 34 -21 67 -14 32 -28
67 -31 76 -3 10 -9 16 -13 13 -4 -3 -7 7 -7 22 0 15 -6 29 -12 31 -6 2 -11 11
-11 19 0 8 -8 32 -19 52 -10 20 -25 55 -32 79 -8 29 -15 38 -21 30 -5 -8 -8
-2 -8 17 0 17 -9 44 -20 60 -11 17 -20 39 -20 50 0 11 -9 35 -20 53 -11 18
-20 39 -20 48 0 8 -4 12 -10 9 -6 -4 -9 3 -7 16 3 29 -23 37 -30 10z m-4 -74
c0 -27 -2 -29 -9 -12 -8 18 -9 18 -10 -5 l-2 -25 -8 25 -8 25 -2 -25 c-2 -19
-4 -20 -7 -7 -6 22 24 70 37 62 6 -4 10 -21 9 -38z m-82 -29 c-3 -7 -5 -2 -5
12 0 14 2 19 5 13 2 -7 2 -19 0 -25z m114 -22 c5 -6 9 -20 9 -33 0 -13 5 -23
10 -23 6 0 11 -24 11 -52 2 -49 2 -51 9 -18 7 32 7 33 9 7 0 -16 5 -26 11 -22
6 3 11 -3 11 -14 1 -12 3 -24 4 -28 2 -5 6 -18 10 -30 4 -13 11 -23 16 -23 5
0 9 -14 9 -31 0 -17 4 -28 10 -24 6 3 10 -3 10 -14 0 -12 5 -21 10 -21 6 0 9
-25 8 -57 l-1 -58 -6 45 c-6 43 -7 44 -23 28 -15 -15 -15 -18 -3 -18 27 0 16
-15 -12 -17 -61 -3 -311 -2 -331 2 -12 2 -22 0 -22 -6 0 -5 -6 -9 -14 -9 -16
0 -27 63 -14 83 6 9 8 9 8 -1 0 -28 23 -39 55 -26 l30 12 -27 13 c-32 14 -33
17 -14 54 l15 28 4 -29 c2 -17 4 -12 3 14 -1 23 2 42 5 42 4 0 5 10 1 22 -3
14 -2 19 6 14 8 -5 12 2 12 20 0 27 1 27 14 8 13 -17 14 -15 11 26 -4 38 -3
40 4 15 8 -29 9 -29 11 -5 1 14 2 34 1 45 -1 11 5 29 13 40 15 20 15 20 16 0
0 -16 2 -17 9 -5 6 8 8 17 6 20 -2 4 2 7 10 7 9 0 35 -53 72 -144 50 -126 73
-168 73 -132 0 5 5 7 10 4 6 -3 10 1 10 9 0 8 -4 18 -10 21 -5 3 -10 15 -10
26 0 11 -7 27 -15 35 -8 8 -17 31 -21 52 -4 20 -10 39 -13 42 -20 16 -31 57
-30 107 1 32 4 47 6 33 3 -14 9 -29 14 -34z m166 -463 c-2 -16 -4 -3 -4 27 0
30 2 43 4 28 2 -16 2 -40 0 -55z m35 -4 c5 -3 10 -16 11 -27 1 -12 5 -22 9
-22 4 0 8 -17 9 -37 0 -32 2 -35 10 -18 8 18 9 17 5 -4 -3 -16 1 -29 12 -37
15 -12 15 -13 -8 -14 -24 0 -50 34 -50 67 0 7 -4 13 -10 13 -6 0 -9 28 -9 68
1 37 4 56 6 42 3 -14 9 -28 15 -31z m-637 -189 c-3 -5 -12 -10 -18 -10 -7 0
-6 4 3 10 19 12 23 12 15 0z"/>
<path d="M3350 10009 c0 -5 5 -7 10 -4 6 3 10 8 10 11 0 2 -4 4 -10 4 -5 0
-10 -5 -10 -11z"/>
<path d="M3531 9904 c0 -11 3 -14 6 -6 3 7 2 16 -1 19 -3 4 -6 -2 -5 -13z"/>
<path d="M3301 9872 c-6 -12 -11 -27 -11 -34 0 -7 7 0 15 16 9 16 13 31 11 33
-2 3 -9 -4 -15 -15z"/>
<path d="M3571 9814 c0 -11 3 -14 6 -6 3 7 2 16 -1 19 -3 4 -6 -2 -5 -13z"/>
<path d="M3588 9743 c5 -21 7 -23 10 -9 2 10 0 22 -6 28 -6 6 -7 0 -4 -19z"/>
<path d="M3692 9525 c0 -16 2 -22 5 -12 2 9 2 23 0 30 -3 6 -5 -1 -5 -18z"/>
<path d="M8000 10198 c-97 -15 -230 -97 -230 -142 0 -9 -4 -14 -10 -11 -6 4
-11 -9 -11 -32 -1 -25 -3 -30 -6 -14 l-5 23 -14 -27 c-16 -32 -19 -81 -4 -90
6 -3 9 -23 9 -43 l-2 -37 -7 35 c-4 19 -8 31 -10 25 -1 -5 -6 1 -10 15 -6 20
-9 14 -11 -30 -4 -85 -2 -110 14 -150 3 -8 8 -26 11 -40 3 -14 3 0 2 30 -2 30
0 64 5 75 5 13 8 -6 9 -55 0 -47 6 -82 14 -93 11 -14 15 -15 19 -5 3 7 6 0 6
-15 1 -16 5 -26 11 -22 6 3 10 -1 10 -10 0 -9 5 -13 10 -10 6 3 10 -3 10 -14
0 -14 -5 -19 -15 -15 -8 4 -15 13 -15 22 0 8 -3 13 -6 9 -5 -5 -25 14 -63 59
-9 11 -54 93 -56 104 -1 3 -7 16 -14 30 -10 22 -11 18 -6 -25 8 -72 35 -141
68 -178 16 -18 32 -31 36 -30 5 1 14 -9 21 -22 7 -14 17 -25 22 -25 5 0 6 4 3
10 -4 6 1 7 11 3 11 -4 13 -8 6 -11 -19 -6 -14 -18 11 -29 15 -7 29 -7 40 -1
14 7 17 5 18 -14 0 -13 3 -17 6 -10 6 14 33 16 33 2 0 -5 -5 -10 -12 -10 -6 0
-8 -3 -5 -6 4 -4 14 -1 24 7 15 12 16 12 10 -3 -3 -10 -2 -18 3 -18 6 0 10 8
11 18 0 14 2 14 9 -3 l9 -20 1 20 c1 11 4 14 7 7 2 -6 8 -10 13 -7 5 3 16 -2
24 -11 12 -11 16 -12 16 -2 0 10 2 10 9 -1 7 -11 9 -11 14 0 4 10 6 10 6 2 1
-15 31 -18 31 -3 0 6 7 10 15 10 8 0 15 -6 15 -12 0 -9 4 -8 10 2 9 13 10 13
10 0 0 -13 1 -13 10 0 5 8 10 10 10 5 0 -6 12 -11 28 -13 l27 -1 -25 15 -25
15 25 -7 c14 -3 27 -6 30 -6 23 0 30 4 30 20 0 14 2 15 10 2 8 -13 10 -13 10
1 0 9 7 19 15 23 9 3 15 0 15 -9 0 -12 5 -12 25 -3 14 6 25 15 25 20 0 5 -4 6
-10 3 -5 -3 -10 -1 -10 4 0 6 5 11 10 11 6 0 10 7 10 17 0 9 3 13 7 10 3 -4
19 7 35 23 15 16 28 24 28 17 0 -7 -6 -19 -12 -26 -11 -10 -10 -11 5 -6 11 5
17 18 17 41 0 25 9 42 37 71 21 20 30 34 22 31 -13 -5 -15 -1 -11 20 3 15 11
33 18 40 11 11 13 8 7 -20 -7 -40 0 -35 15 10 6 19 7 30 2 27 -6 -4 -10 4 -10
17 0 18 2 20 10 8 8 -13 10 -12 10 3 0 9 -3 17 -7 17 -13 0 -33 52 -32 79 1
21 2 22 6 6 3 -11 11 -29 19 -39 12 -17 13 -14 11 31 -1 34 -6 48 -12 43 -7
-6 -9 6 -8 33 2 33 1 38 -7 22 -8 -17 -9 -16 -8 10 0 17 0 39 -1 50 -1 17 -3
18 -12 5 -8 -12 -9 -11 -4 6 7 26 -44 98 -94 131 -42 29 -57 21 -25 -14 13
-14 24 -35 24 -47 0 -17 2 -18 10 -6 8 12 10 9 10 -13 0 -16 4 -26 10 -22 6 4
11 -23 12 -72 l1 -78 6 60 c4 38 8 51 11 35 3 -14 3 -47 -1 -75 -3 -27 -5 -87
-4 -132 1 -46 -2 -83 -6 -83 -4 0 -9 -15 -12 -32 -14 -78 -20 -97 -28 -92 -5
3 -9 -1 -9 -8 0 -46 -125 -123 -221 -137 -70 -10 -182 -1 -214 16 -11 6 -22
11 -25 11 -16 -2 -50 15 -50 24 0 6 -3 9 -6 5 -12 -12 -34 22 -33 50 1 17 3
21 6 11 4 -16 15 -22 36 -19 4 0 7 -3 7 -7 0 -5 7 -9 15 -9 20 0 19 3 -11 35
-14 15 -33 39 -42 55 -9 15 -20 27 -24 27 -4 0 -8 12 -8 26 0 14 -5 35 -12 47
-11 21 -11 21 -19 2 -6 -17 -8 -16 -8 8 -1 15 4 27 9 27 6 0 10 46 10 119 0
103 3 125 22 160 12 23 25 41 30 41 4 0 8 6 8 13 0 6 21 25 47 40 50 31 111
48 99 29 -4 -7 -16 -12 -26 -12 -10 0 -21 -4 -25 -9 -3 -6 7 -6 27 0 18 5 34
9 35 9 2 0 3 8 4 18 0 14 2 14 9 -3 7 -17 9 -17 9 -2 1 13 10 17 45 17 34 0
46 -4 49 -17 4 -17 5 -17 6 0 0 9 5 17 11 17 5 0 7 -7 4 -15 -4 -9 0 -15 10
-15 9 0 16 4 16 8 0 5 7 9 15 9 8 0 15 -4 15 -9 0 -5 5 -6 10 -3 6 3 10 1 10
-4 0 -6 10 -11 23 -12 12 0 16 -3 10 -6 -18 -7 -16 -20 3 -27 8 -3 12 -2 9 3
-3 5 -1 12 5 16 5 3 10 0 10 -9 0 -8 4 -16 8 -18 18 -7 91 -179 93 -217 1 -21
2 -20 8 9 9 48 0 197 -10 155 l-7 -30 -1 33 c-1 19 -5 31 -11 27 -6 -3 -10 4
-10 17 0 22 -35 55 -52 50 -5 -1 -8 2 -8 6 0 19 -107 52 -185 56 -22 2 -65 -1
-95 -6z m-268 -258 c-6 -41 -12 -38 -12 6 0 19 4 33 8 30 5 -3 7 -19 4 -36z
m717 -90 c-5 -16 -7 2 -7 50 1 70 1 72 8 25 4 -27 3 -61 -1 -75z m-685 -69
c-9 -21 -22 28 -21 84 l0 40 7 -45 c7 -42 7 -40 11 30 l3 75 3 -84 c2 -46 1
-91 -3 -100z m-54 47 c0 -25 -4 -38 -9 -32 -8 8 -4 74 5 74 2 0 4 -19 4 -42z
m747 -30 c-3 -8 -6 -5 -6 6 -1 11 2 17 5 13 3 -3 4 -12 1 -19z m30 -35 c-3
-10 -5 -2 -5 17 0 19 2 27 5 18 2 -10 2 -26 0 -35z m-40 -40 c-3 -10 -5 -2 -5
17 0 19 2 27 5 18 2 -10 2 -26 0 -35z m-660 -45 c-3 -7 -5 -2 -5 12 0 14 2 19
5 13 2 -7 2 -19 0 -25z m633 -25 c-11 -17 -11 -17 -6 0 3 10 6 24 7 30 0 9 2
9 5 0 3 -7 0 -20 -6 -30z m-585 -183 c3 -6 -1 -7 -9 -4 -18 7 -21 14 -7 14 6
0 13 -4 16 -10z m395 -34 c0 -11 -19 -15 -25 -6 -3 5 1 10 9 10 9 0 16 -2 16
-4z"/>
<path d="M4563 10183 c-18 -7 -16 -20 2 -20 8 0 15 6 15 14 0 7 -1 13 -2 12
-2 0 -9 -3 -15 -6z"/>
<path d="M6350 10181 c0 -6 5 -13 10 -16 6 -3 10 1 10 9 0 9 -4 16 -10 16 -5
0 -10 -4 -10 -9z"/>
<path d="M6103 10173 c-16 -6 -17 -33 -3 -33 11 0 26 28 19 34 -2 2 -10 1 -16
-1z"/>
<path d="M4288 10143 c23 -2 61 -2 85 0 23 2 4 4 -43 4 -47 0 -66 -2 -42 -4z"/>
<path d="M5792 10143 c37 -2 100 -2 140 0 40 1 10 3 -67 3 -77 0 -110 -1 -73
-3z"/>
<path d="M7900 10130 c-8 -5 -11 -12 -7 -16 4 -4 13 -2 19 4 15 15 7 24 -12
12z"/>
<path d="M4130 10042 c0 -34 3 -62 8 -62 8 0 7 108 -2 117 -3 4 -6 -21 -6 -55z"/>
<path d="M7843 10074 c-7 -7 -13 -19 -13 -26 0 -7 7 -2 16 10 18 26 16 37 -3
16z"/>
<path d="M5650 10058 c0 -4 4 -8 9 -8 6 0 12 4 15 8 3 5 -1 9 -9 9 -8 0 -15
-4 -15 -9z"/>
<path d="M6392 10045 c0 -16 2 -22 5 -12 2 9 2 23 0 30 -3 6 -5 -1 -5 -18z"/>
<path d="M7811 10024 c0 -11 3 -14 6 -6 3 7 2 16 -1 19 -3 4 -6 -2 -5 -13z"/>
<path d="M6492 9980 c0 -14 2 -19 5 -12 2 6 2 18 0 25 -3 6 -5 1 -5 -13z"/>
<path d="M7792 9980 c0 -14 2 -19 5 -12 2 6 2 18 0 25 -3 6 -5 1 -5 -13z"/>
<path d="M6835 9978 c-3 -12 -7 -33 -19 -118 -3 -19 -3 -26 0 -15 3 11 14 45
25 76 10 30 19 58 19 62 0 12 -20 7 -25 -5z"/>
<path d="M7392 9935 c0 -16 2 -22 5 -12 2 9 2 23 0 30 -3 6 -5 -1 -5 -18z"/>
<path d="M6028 9865 c-15 -34 -32 -37 -176 -33 -90 2 -122 0 -122 -9 0 -6 9
-10 20 -8 15 3 20 -2 21 -18 1 -21 1 -21 7 -2 10 28 32 30 33 3 1 -22 1 -22 9
2 l8 25 1 -25 c1 -18 4 -21 10 -11 7 11 9 11 14 0 3 -8 6 -4 6 9 1 19 3 21 15
10 10 -9 11 -15 2 -20 -7 -5 -5 -8 7 -8 11 0 17 8 18 23 l1 22 6 -23 c4 -13
12 -23 17 -23 6 0 13 10 17 23 l6 23 2 -25 2 -25 8 25 8 25 2 -25 c1 -23 2
-23 10 -5 8 18 9 18 9 2 1 -29 55 -19 59 11 2 12 -2 22 -8 22 -6 0 -4 10 5 24
11 16 13 26 6 31 -6 3 -16 -5 -23 -20z m6 -60 c-7 -17 -34 -21 -34 -4 0 5 5 7
10 4 6 -3 10 -1 10 4 0 6 4 11 10 11 5 0 7 -7 4 -15z"/>
<path d="M7292 9855 c0 -16 2 -22 5 -12 2 9 2 23 0 30 -3 6 -5 -1 -5 -18z"/>
<path d="M6471 9834 c0 -11 3 -14 6 -6 3 7 2 16 -1 19 -3 4 -6 -2 -5 -13z"/>
<path d="M4490 9795 c0 -8 2 -15 4 -15 2 0 6 7 10 15 3 8 1 15 -4 15 -6 0 -10
-7 -10 -15z"/>
<path d="M6792 9780 c0 -19 2 -27 5 -17 2 9 2 25 0 35 -3 9 -5 1 -5 -18z"/>
<path d="M5718 9793 c7 -3 16 -2 19 1 4 3 -2 6 -13 5 -11 0 -14 -3 -6 -6z"/>
<path d="M4458 9783 c7 -3 16 -2 19 1 4 3 -2 6 -13 5 -11 0 -14 -3 -6 -6z"/>
<path d="M7331 9774 c0 -11 3 -14 6 -6 3 7 2 16 -1 19 -3 4 -6 -2 -5 -13z"/>
<path d="M7092 9740 c0 -14 2 -19 5 -12 2 6 2 18 0 25 -3 6 -5 1 -5 -13z"/>
<path d="M6571 9734 c0 -11 3 -14 6 -6 3 7 2 16 -1 19 -3 4 -6 -2 -5 -13z"/>
<path d="M6775 9739 c3 -9 0 -23 -8 -30 -7 -8 -17 -28 -20 -44 -6 -22 -1 -17
18 19 19 36 23 52 15 60 -8 8 -10 7 -5 -5z"/>
<path d="M7321 9734 c0 -11 3 -14 6 -6 3 7 2 16 -1 19 -3 4 -6 -2 -5 -13z"/>
<path d="M7293 9662 c-1 -28 0 -32 7 -17 11 25 12 55 3 55 -5 0 -9 -17 -10
-38z"/>
<path d="M3265 9640 c3 -5 8 -10 11 -10 2 0 4 5 4 10 0 6 -5 10 -11 10 -5 0
-7 -4 -4 -10z"/>
<path d="M7271 9605 c0 -35 1 -37 10 -17 6 15 5 30 -1 40 -7 13 -9 8 -9 -23z"/>
<path d="M8450 9614 c0 -8 5 -12 10 -9 6 4 8 11 5 16 -9 14 -15 11 -15 -7z"/>
<path d="M8430 9581 c0 -25 6 -27 13 -6 4 8 2 17 -3 20 -6 4 -10 -3 -10 -14z"/>
<path d="M6734 9576 c-3 -8 -4 -25 -2 -38 3 -17 5 -13 9 15 5 38 2 47 -7 23z"/>
<path d="M6592 9545 c0 -16 2 -22 5 -12 2 9 2 23 0 30 -3 6 -5 -1 -5 -18z"/>
<path d="M7252 9545 c0 -16 2 -22 5 -12 2 9 2 23 0 30 -3 6 -5 -1 -5 -18z"/>
<path d="M7231 9493 c0 -13 -5 -23 -11 -23 -5 0 -10 -8 -10 -18 0 -10 -5 -23
-10 -28 -7 -7 -6 -11 5 -11 8 0 15 8 15 17 0 9 5 21 11 27 6 6 9 21 6 34 -4
24 -4 24 -6 2z"/>
<path d="M8370 9499 c0 -5 5 -7 10 -4 6 3 10 8 10 11 0 2 -4 4 -10 4 -5 0 -10
-5 -10 -11z"/>
<path d="M6591 9484 c0 -11 3 -14 6 -6 3 7 2 16 -1 19 -3 4 -6 -2 -5 -13z"/>
<path d="M8351 9484 c0 -11 3 -14 6 -6 3 7 2 16 -1 19 -3 4 -6 -2 -5 -13z"/>
<path d="M4058 9483 c7 -3 16 -2 19 1 4 3 -2 6 -13 5 -11 0 -14 -3 -6 -6z"/>
<path d="M6120 9430 c0 -6 -4 -9 -9 -5 -5 3 -12 2 -15 -3 -2 -4 6 -8 20 -8 25
0 32 10 14 21 -5 3 -10 1 -10 -5z"/>
<path d="M4930 9422 c0 -4 79 -7 175 -7 96 0 175 3 175 7 0 5 -79 8 -175 8
-96 0 -175 -3 -175 -8z"/>
<path d="M5696 9422 c-2 -4 83 -7 190 -7 107 0 194 3 194 7 0 9 -378 9 -384 0z"/>
<path d="M7978 9403 c7 -3 16 -2 19 1 4 3 -2 6 -13 5 -11 0 -14 -3 -6 -6z"/>
<path d="M8770 9040 c0 -5 5 -10 10 -10 6 0 10 5 10 10 0 6 -4 10 -10 10 -5 0
-10 -4 -10 -10z"/>
<path d="M8741 9006 c-8 -13 -11 -30 -8 -38 3 -7 6 -3 6 10 1 13 5 20 11 17 6
-3 10 3 10 14 0 27 -4 26 -19 -3z"/>
<path d="M8770 9009 c0 -5 5 -7 10 -4 6 3 10 8 10 11 0 2 -4 4 -10 4 -5 0 -10
-5 -10 -11z"/>
<path d="M1954 8912 c-7 -4 -14 -16 -17 -27 -4 -18 -5 -18 -6 3 -1 15 -7 22
-21 22 -11 0 -20 -4 -20 -8 0 -4 -13 -13 -30 -19 -18 -7 -30 -18 -30 -29 0 -9
-3 -15 -6 -11 -8 7 -34 -17 -34 -32 0 -6 4 -11 9 -11 5 0 15 -16 23 -36 10
-29 14 -32 19 -17 6 14 8 11 10 -12 l2 -30 7 35 7 35 2 -30 c2 -26 4 -27 11
-10 8 19 9 18 11 -5 1 -21 3 -19 9 10 l7 35 3 -30 c2 -30 2 -30 10 -5 l8 25 2
-25 c2 -21 4 -19 10 10 7 35 7 35 9 5 1 -23 3 -27 11 -15 8 13 10 12 11 -5 1
-11 5 -4 9 15 l7 35 3 -35 c2 -33 3 -33 10 -10 8 25 8 25 10 -5 l3 -30 7 35
c5 24 8 28 9 12 0 -13 6 -20 11 -17 6 3 10 0 11 -7 0 -7 4 -4 9 7 l9 20 0 -20
c1 -17 3 -17 11 -5 9 13 10 13 11 0 0 -10 3 -8 9 5 l9 20 1 -20 1 -20 9 20 9
20 0 -20 c1 -17 3 -17 11 -5 9 13 10 13 10 0 0 -13 1 -13 10 0 9 13 10 13 10
0 0 -13 1 -13 10 0 7 11 10 11 10 2 0 -7 5 -10 10 -7 6 3 10 0 11 -7 0 -7 4
-4 9 7 6 13 9 15 9 5 1 -13 2 -13 11 0 8 12 10 12 11 -5 l0 -20 9 20 c5 11 9
15 9 9 1 -13 31 -15 31 -2 0 5 8 2 17 -8 16 -15 17 -15 24 2 4 11 8 13 8 6 1
-7 5 -11 10 -8 5 4 12 0 14 -6 3 -7 6 5 6 27 1 29 -2 36 -9 25 -9 -13 -10 -13
-10 0 0 13 -1 13 -10 0 -8 -13 -10 -13 -10 1 0 11 -9 17 -25 17 -16 0 -25 -6
-26 -17 0 -12 -2 -11 -9 4 l-9 20 -1 -20 -1 -20 -8 20 -8 20 -5 -20 c-5 -17
-6 -16 -8 5 l-2 25 -8 -25 c-8 -25 -8 -25 -10 5 -2 30 -2 30 -10 5 -7 -21 -8
-22 -10 -5 -2 17 -3 16 -10 -5 -7 -22 -8 -20 -10 15 -1 32 -3 36 -10 20 l-9
-20 -1 20 -1 20 -9 -20 c-8 -19 -9 -18 -11 5 -1 21 -3 19 -9 -10 l-7 -35 -3
40 c-2 39 -3 39 -10 10 l-8 -30 -1 30 c-1 23 -3 27 -11 15 -8 -12 -10 -12 -11
5 l0 20 -9 -20 c-8 -19 -9 -18 -11 5 -1 21 -3 19 -9 -10 l-7 -35 -2 38 c-1 45
-23 46 -32 2 -6 -29 -6 -29 -8 7 0 21 4 38 12 41 7 3 5 6 -5 6 -11 1 -18 -6
-18 -16 0 -15 -2 -15 -9 -4 -5 8 -7 20 -4 28 6 14 -5 17 -23 5z m-41 -62 c-3
-11 -7 -20 -9 -20 -2 0 -4 9 -4 20 0 11 4 20 9 20 5 0 7 -9 4 -20z m74 -22
c-3 -7 -5 -2 -5 12 0 14 2 19 5 13 2 -7 2 -19 0 -25z m40 -5 c-3 -10 -5 -4 -5
12 0 17 2 24 5 18 2 -7 2 -21 0 -30z"/>
<path d="M3531 8813 c-1 -13 -6 -23 -13 -23 -15 0 -4 -11 14 -14 7 -1 19 -5
26 -9 6 -5 17 -5 24 -1 7 4 8 3 4 -4 -5 -8 2 -10 24 -6 19 4 30 2 30 -5 0 -6
5 -11 11 -11 6 0 9 6 6 14 -3 8 0 17 8 20 9 3 12 0 9 -8 -3 -9 9 -16 38 -21
69 -12 71 -13 79 -27 7 -11 9 -11 9 0 0 10 4 10 16 -2 14 -15 22 -18 40 -15 4
0 11 -5 15 -13 7 -10 9 -10 9 2 1 13 2 13 13 0 10 -12 162 -71 180 -69 1 0 19
-7 40 -16 21 -9 42 -13 47 -10 4 3 10 1 12 -5 2 -6 13 -12 26 -15 12 -3 31 -7
42 -9 15 -4 20 0 20 15 0 11 -4 17 -10 14 -5 -3 -10 0 -10 7 0 9 -3 9 -10 -2
-9 -13 -10 -13 -10 0 0 13 -1 13 -10 0 -8 -13 -10 -12 -10 3 0 10 -4 15 -10
12 -5 -3 -10 0 -10 7 0 9 -3 9 -10 -2 -6 -10 -10 -11 -10 -2 0 7 -13 12 -30
12 -16 0 -30 4 -30 8 0 5 -26 16 -57 26 -32 10 -64 23 -72 29 -7 6 -25 13 -39
15 -15 2 -30 8 -33 14 -4 7 -9 5 -12 -3 -4 -10 -6 -10 -6 -1 -1 6 -11 12 -23
12 -19 0 -20 2 -8 11 12 9 11 10 -7 6 -13 -3 -23 -1 -23 5 0 5 -4 6 -10 3 -5
-3 -10 -1 -10 6 0 7 -3 10 -6 6 -4 -3 -19 0 -34 8 -15 8 -30 11 -34 8 -3 -4
-6 -2 -6 4 0 6 -9 9 -20 6 -13 -3 -20 0 -20 8 0 11 -2 11 -10 -1 -5 -8 -10
-10 -10 -3 0 6 -8 10 -17 9 -10 -2 -21 2 -25 8 -5 7 -8 6 -8 -4 0 -13 -1 -13
-10 0 -9 13 -10 13 -10 0 0 -13 -1 -13 -10 0 -9 13 -10 13 -10 0 0 -13 -1 -13
-10 0 -8 12 -10 12 -11 -5 -1 -17 -2 -16 -9 5 -8 24 -8 24 -9 3z"/>
<path d="M3498 8803 c7 -3 16 -2 19 1 4 3 -2 6 -13 5 -11 0 -14 -3 -6 -6z"/>
<path d="M2390 8740 c0 -23 4 -28 20 -25 13 3 20 -2 21 -13 0 -14 2 -13 9 3 5
11 9 14 9 8 1 -7 10 -13 21 -13 11 0 20 -5 20 -11 0 -5 5 -7 10 -4 6 3 10 -2
11 -12 0 -16 1 -16 9 2 8 19 9 19 9 -3 1 -13 5 -20 11 -17 6 3 10 1 10 -5 0
-18 28 -42 35 -30 9 15 25 2 25 -19 0 -11 12 -24 30 -31 17 -7 30 -18 30 -24
0 -6 5 -4 10 4 7 11 10 12 10 2 0 -7 7 -20 15 -28 13 -14 15 -13 16 3 1 10 5
5 9 -12 l8 -30 1 27 c1 18 -6 32 -19 40 -11 7 -20 20 -20 28 0 13 -1 13 -10 0
-8 -12 -10 -12 -10 5 0 17 -2 17 -10 5 -8 -12 -10 -10 -10 10 0 20 -2 22 -10
10 -9 -13 -10 -13 -10 0 0 13 -1 13 -10 0 -5 -8 -10 -10 -10 -4 0 5 5 15 11
21 7 7 2 14 -18 22 -36 14 -64 32 -79 50 -6 8 -16 11 -22 7 -7 -4 -12 -1 -12
8 0 14 -12 20 -32 17 -5 0 -8 5 -8 12 0 8 -4 7 -10 -3 -8 -12 -10 -12 -10 5 0
17 -2 17 -10 5 -5 -8 -10 -10 -10 -4 0 7 -7 14 -15 18 -11 4 -15 -2 -15 -24z"/>
<path d="M4270 8560 c0 -26 3 -31 10 -20 6 10 10 11 10 3 0 -9 18 -13 53 -14
40 0 48 -3 32 -10 -17 -8 -16 -9 8 -6 19 3 27 0 28 -12 0 -12 2 -11 9 4 6 15
9 16 9 4 1 -22 31 -20 31 3 0 11 -7 18 -20 18 -11 0 -20 5 -20 10 0 6 -9 10
-20 10 -11 0 -20 6 -20 13 0 8 -4 7 -10 -3 -9 -13 -10 -13 -10 0 0 12 -2 13
-9 1 -5 -7 -10 -9 -12 -3 -2 6 -15 12 -29 14 -14 1 -28 8 -32 13 -4 6 -8 -6
-8 -25z"/>
<path d="M8172 8555 c0 -16 2 -22 5 -12 2 9 2 23 0 30 -3 6 -5 -1 -5 -18z"/>
<path d="M8210 8564 c0 -8 -4 -12 -10 -9 -5 3 -10 -1 -10 -9 0 -10 6 -13 15
-10 13 6 22 44 10 44 -3 0 -5 -7 -5 -16z"/>
<path d="M8232 8560 c0 -14 2 -19 5 -12 2 6 2 18 0 25 -3 6 -5 1 -5 -13z"/>
<path d="M8093 8529 c-2 -18 18 -17 43 2 6 5 14 6 17 2 4 -3 7 -1 7 5 0 15
-17 16 -25 2 -3 -5 -11 -10 -16 -10 -6 0 -8 4 -5 8 3 5 -1 9 -7 9 -7 0 -14 -8
-14 -18z"/>
<path d="M8051 8524 c0 -11 3 -14 6 -6 3 7 2 16 -1 19 -3 4 -6 -2 -5 -13z"/>
<path d="M2750 8509 c0 -15 7 -29 16 -33 8 -3 13 -10 9 -15 -6 -11 33 -36 43
-27 3 3 0 6 -6 6 -7 0 -12 4 -12 10 0 5 7 7 15 4 8 -4 15 -15 15 -25 0 -10 3
-19 8 -19 4 0 13 -14 21 -31 7 -16 16 -28 18 -25 7 7 72 -66 73 -81 0 -15 40
-38 40 -23 0 5 -4 10 -10 10 -5 0 -10 7 -10 15 0 7 -8 19 -17 24 -10 6 -12 11
-6 11 18 0 -17 40 -37 41 -8 1 -4 5 10 9 24 8 24 8 3 9 -13 1 -23 6 -23 11 0
12 -32 45 -51 53 -12 4 -12 6 0 6 11 1 -10 24 -65 70 -8 7 -14 8 -14 4 0 -4
-5 -1 -10 7 -8 12 -10 9 -10 -11z m130 -130 c0 -6 -4 -7 -10 -4 -5 3 -10 11
-10 16 0 6 5 7 10 4 6 -3 10 -11 10 -16z"/>
<path d="M4470 8505 c0 -23 17 -32 53 -26 4 0 7 -7 7 -16 0 -15 2 -16 10 -3 7
11 10 12 10 2 0 -10 13 -13 49 -10 42 2 48 1 38 -11 -9 -12 -9 -13 1 -7 7 4
12 2 12 -6 0 -10 2 -10 9 1 6 10 10 10 13 1 2 -7 17 -13 33 -15 44 -4 58 -8
74 -24 12 -11 16 -11 19 -1 3 9 6 9 13 -1 7 -11 9 -11 9 -1 0 10 4 9 16 -3 14
-13 19 -14 25 -3 7 11 9 11 9 0 0 -7 5 -10 10 -7 6 3 10 0 10 -7 0 -9 3 -9 10
2 9 13 10 13 10 0 0 -13 1 -13 10 0 8 12 10 12 11 -5 l0 -20 9 20 9 20 0 -20
c1 -16 3 -17 10 -6 7 11 10 10 14 -5 3 -13 5 -11 6 9 1 24 -3 27 -29 27 -17 0
-30 5 -30 13 0 8 -4 7 -10 -3 -6 -10 -10 -11 -10 -2 0 6 -9 12 -20 12 -11 0
-20 5 -20 11 0 7 -15 10 -40 7 -22 -2 -40 0 -40 5 0 4 -4 5 -10 2 -5 -3 -10 0
-10 7 0 9 -3 9 -10 -2 -9 -13 -10 -13 -10 0 0 12 -2 13 -9 1 -7 -11 -9 -11
-14 0 -4 11 -6 11 -6 1 -1 -8 -8 -6 -23 8 -13 12 -35 20 -55 20 -18 0 -33 5
-33 10 0 6 -9 10 -20 10 -11 0 -20 6 -20 13 0 8 -4 7 -10 -3 -9 -13 -10 -13
-10 0 0 13 -1 13 -10 0 -6 -10 -10 -11 -10 -2 0 6 -10 12 -22 12 -19 0 -20 2
-8 10 13 8 12 10 -2 10 -13 0 -18 -8 -18 -25z m377 -91 c-3 -3 -12 -4 -19 -1
-8 3 -5 6 6 6 11 1 17 -2 13 -5z"/>
<path d="M8031 8514 c0 -11 3 -14 6 -6 3 7 2 16 -1 19 -3 4 -6 -2 -5 -13z"/>
<path d="M4990 8368 c0 -16 5 -29 10 -29 6 -1 18 -2 28 -2 9 -1 20 -6 24 -12
5 -6 8 -5 8 3 0 10 4 10 15 -2 8 -8 24 -13 35 -11 11 2 20 -2 20 -8 0 -7 4 -6
10 3 5 8 10 10 10 4 0 -6 7 -11 15 -11 8 0 15 5 15 11 0 6 4 6 8 -2 5 -7 18
-14 30 -17 12 -2 27 -7 32 -10 6 -3 10 0 10 7 0 10 2 10 9 -1 7 -11 9 -11 14
0 4 10 6 10 6 -2 1 -12 9 -16 31 -14 17 1 30 -2 30 -9 0 -6 5 -4 10 4 9 13 10
13 10 0 0 -13 1 -13 10 0 5 8 10 10 10 4 0 -6 7 -11 15 -11 10 0 15 10 15 26
0 21 -2 23 -10 11 -5 -8 -10 -10 -10 -4 0 5 -21 11 -47 13 -26 1 -51 8 -55 14
-5 9 -8 8 -8 -3 0 -11 -3 -12 -8 -3 -4 6 -29 13 -55 14 -26 2 -47 6 -47 10 0
4 -9 6 -20 4 -11 -2 -20 0 -20 6 0 14 -24 6 -32 -11 -5 -12 -7 -12 -7 3 -1 15
-12 22 -33 18 -5 0 -8 5 -8 12 0 8 -4 7 -10 -3 -9 -13 -10 -13 -10 0 0 13 -1
13 -10 0 -8 -12 -10 -12 -11 5 0 13 -3 15 -6 6 -5 -11 -7 -11 -14 0 -6 10 -9
6 -9 -13z"/>
<path d="M6703 8384 c-7 -3 -9 -12 -6 -20 8 -21 22 -17 20 6 -1 11 -1 20 -2
19 0 0 -5 -3 -12 -5z"/>
<path d="M6642 8354 c-7 -8 -11 -20 -9 -27 4 -9 6 -9 6 1 1 7 6 10 11 7 6 -3
10 3 10 14 0 25 -1 25 -18 5z"/>
<path d="M6672 8350 c0 -14 2 -19 5 -12 2 6 2 18 0 25 -3 6 -5 1 -5 -13z"/>
<path d="M6730 8360 c0 -5 7 -7 15 -4 8 4 15 8 15 10 0 2 -7 4 -15 4 -8 0 -15
-4 -15 -10z"/>
<path d="M6551 8328 c-1 -20 3 -26 14 -22 8 4 15 13 15 21 0 8 -4 12 -9 9 -5
-4 -12 0 -14 6 -3 7 -6 1 -6 -14z"/>
<path d="M7184 8333 c3 -8 -2 -13 -13 -13 -26 0 -101 -75 -102 -102 0 -22 -1
-22 -9 -3 -7 16 -9 17 -9 3 -1 -9 -6 -20 -13 -24 -7 -5 -8 -3 -3 5 4 7 -4 5
-19 -4 -14 -9 -23 -21 -20 -26 3 -5 -2 -9 -10 -9 -9 0 -16 -7 -16 -17 0 -9 -3
-13 -7 -10 -10 11 -33 -14 -33 -37 0 -17 -2 -18 -10 -6 -7 11 -10 4 -9 -25 0
-22 3 -34 6 -27 2 6 9 10 14 6 5 -3 9 4 9 15 0 11 5 23 11 26 6 4 8 14 5 22
-3 8 -1 11 4 8 6 -3 10 -17 10 -31 0 -14 -4 -22 -10 -19 -15 9 -12 -4 3 -20
12 -11 14 -5 16 38 1 28 5 55 9 59 4 4 6 -23 6 -60 l-2 -67 8 60 c3 33 7 50 8
38 2 -18 8 -22 27 -21 19 2 25 8 26 28 1 20 3 18 9 -10 6 -30 8 -31 9 -9 1 21
7 28 30 32 23 5 31 13 34 34 l4 28 2 -29 c2 -46 31 -13 31 36 0 24 4 37 10 33
6 -4 10 9 10 32 0 21 3 47 6 59 4 15 1 21 -11 21 -9 0 -14 -6 -11 -14z m-17
-120 c-2 -21 -4 -6 -4 32 0 39 2 55 4 38 2 -18 2 -50 0 -70z m20 50 c-3 -10
-5 -2 -5 17 0 19 2 27 5 18 2 -10 2 -26 0 -35z m-40 -30 c-2 -16 -4 -5 -4 22
0 28 2 40 4 28 2 -13 2 -35 0 -50z m-17 21 c0 -8 -5 -12 -10 -9 -6 4 -8 11 -5
16 9 14 15 11 15 -7z m-3 -66 c-3 -8 -6 -5 -6 6 -1 11 2 17 5 13 3 -3 4 -12 1
-19z m-2 -37 c-8 -14 -25 -14 -25 0 0 5 5 7 10 4 6 -3 10 -1 10 6 0 7 3 10 6
6 3 -3 3 -10 -1 -16z"/>
<path d="M6490 8321 c0 -15 -6 -18 -30 -16 -17 1 -33 -1 -36 -6 -8 -14 -44
-11 -44 4 0 8 -4 7 -10 -3 -7 -11 -10 -11 -10 -2 0 10 -3 10 -14 0 -10 -9 -11
-15 -2 -20 7 -5 5 -8 -6 -8 -11 0 -18 8 -18 20 0 27 -18 25 -30 -2 -5 -13 -9
-18 -9 -13 -1 6 -17 11 -36 11 -28 0 -35 -4 -36 -21 -1 -17 -2 -16 -9 5 -4 14
-9 18 -9 10 -1 -13 -2 -13 -11 0 -9 13 -10 13 -10 0 0 -13 -1 -13 -10 0 -7 11
-10 11 -10 2 0 -7 -4 -10 -10 -7 -5 3 -10 -2 -11 -12 0 -15 -2 -15 -7 -3 -10
22 -46 19 -54 -5 -6 -19 -6 -19 -7 2 -1 29 -28 20 -34 -10 -3 -16 -5 -14 -6 8
-1 21 -4 26 -10 17 -4 -8 -12 -14 -16 -14 -4 0 -12 6 -16 14 -6 9 -9 4 -10
-17 l-1 -30 -8 30 -8 30 -2 -30 c-2 -27 -3 -28 -8 -7 -8 28 -24 30 -33 5 -6
-15 -8 -14 -8 7 -1 20 -3 22 -11 10 -9 -13 -10 -13 -10 0 0 12 -2 13 -9 1 -7
-11 -9 -11 -14 0 -4 11 -6 11 -6 -1 -1 -13 -2 -13 -11 0 -7 11 -9 2 -9 -30 1
-37 2 -41 9 -20 5 14 8 18 9 9 1 -12 9 -16 31 -14 17 1 33 -1 36 -6 2 -4 16
-4 29 1 16 6 25 6 25 0 0 -6 -5 -10 -12 -10 -6 0 -8 -3 -4 -7 4 -5 14 1 22 11
8 11 14 14 14 8 0 -7 7 -12 15 -12 8 0 15 6 15 13 0 9 3 8 9 -2 7 -11 9 -11
14 0 4 10 6 10 6 2 1 -14 51 -18 51 -4 0 4 19 8 43 8 52 0 88 9 98 24 5 8 8 8
11 -2 3 -10 10 -11 34 -2 16 7 49 14 74 17 25 4 46 10 48 15 1 4 14 6 27 3 15
-2 25 0 25 7 0 6 9 11 20 11 15 0 20 7 20 25 0 14 -2 25 -5 25 -3 0 -5 -8 -5
-19z m-183 -43 c-3 -8 -6 -5 -6 6 -1 11 2 17 5 13 3 -3 4 -12 1 -19z"/>
<path d="M6532 8320 c0 -14 2 -19 5 -12 2 6 2 18 0 25 -3 6 -5 1 -5 -13z"/>
<path d="M6591 8324 c0 -11 3 -14 6 -6 3 7 2 16 -1 19 -3 4 -6 -2 -5 -13z"/>
<path d="M6511 8314 c0 -11 3 -14 6 -6 3 7 2 16 -1 19 -3 4 -6 -2 -5 -13z"/>
<path d="M5431 8280 c-1 -26 2 -31 9 -20 9 13 10 13 10 0 0 -13 1 -13 10 0 7
11 10 11 10 2 0 -7 5 -10 10 -7 6 3 10 0 11 -7 0 -7 4 -4 9 7 7 16 9 17 9 3 1
-10 8 -15 19 -13 9 1 25 -2 35 -7 12 -6 17 -5 17 4 0 9 3 9 10 -2 5 -8 10 -10
10 -5 0 6 5 3 10 -5 7 -11 10 -4 10 25 0 29 -3 36 -10 25 -9 -13 -10 -13 -10
0 0 13 -1 13 -10 0 -6 -10 -10 -11 -10 -2 0 14 -21 12 -32 -3 -4 -5 -8 -1 -8
10 0 17 -2 17 -10 5 -8 -12 -10 -12 -11 5 l0 20 -9 -20 -9 -20 0 20 c-1 17 -3
17 -11 5 -9 -13 -10 -13 -10 0 0 13 -1 13 -10 0 -9 -13 -10 -13 -10 0 0 12 -2
13 -9 1 -7 -11 -9 -11 -14 0 -3 8 -6 -2 -6 -21z"/>
<path d="M7217 8303 c-4 -3 -7 -21 -7 -39 0 -18 -4 -36 -10 -39 -5 -3 -10 -18
-9 -33 0 -15 3 -21 6 -13 5 11 7 11 14 0 7 -11 9 -11 9 2 0 8 -5 20 -12 27 -7
7 -9 12 -6 12 4 0 13 -7 22 -15 13 -14 15 -13 13 4 0 11 -5 17 -9 15 -4 -3 -8
13 -8 35 0 29 4 41 14 41 11 0 16 -14 19 -47 l3 -48 2 53 c2 44 -1 52 -16 52
-10 0 -22 -3 -25 -7z"/>
<path d="M7311 8284 c0 -11 3 -14 6 -6 3 7 2 16 -1 19 -3 4 -6 -2 -5 -13z"/>
<path d="M5651 8282 c-1 -7 -5 -10 -11 -7 -6 4 -10 -5 -10 -20 0 -14 4 -24 9
-21 5 4 12 0 14 -6 4 -9 6 -8 6 2 1 13 2 13 11 0 9 -13 10 -13 10 0 0 13 1 13
10 0 9 -13 10 -13 10 0 0 13 1 13 10 0 7 -11 10 -8 10 16 0 25 -4 30 -25 30
-15 0 -25 -6 -26 -15 -1 -9 -5 -5 -9 9 -4 14 -8 19 -9 12z"/>
<path d="M5730 8249 c0 -17 4 -28 10 -24 6 3 10 0 10 -7 0 -10 2 -10 9 1 7 11
9 11 14 0 4 -9 6 -7 6 5 1 18 3 17 21 -4 l20 -23 0 40 c0 29 -4 40 -15 40 -8
0 -15 -7 -16 -16 0 -12 -3 -11 -9 4 -6 13 -9 15 -9 5 -1 -9 -4 -11 -9 -5 -16
22 -32 14 -32 -16z"/>
<path d="M7232 8260 c0 -14 2 -19 5 -12 2 6 2 18 0 25 -3 6 -5 1 -5 -13z"/>
<path d="M7271 8254 c0 -11 3 -14 6 -6 3 7 2 16 -1 19 -3 4 -6 -2 -5 -13z"/>
<path d="M2990 8213 c0 -15 19 -37 26 -31 3 4 -1 14 -10 23 -9 9 -16 13 -16 8z"/>
<path d="M3011 8155 c0 -12 3 -25 8 -30 5 -6 11 -21 13 -34 5 -38 28 -39 28
-1 0 18 -4 29 -10 25 -6 -4 -10 6 -10 22 0 20 -3 24 -9 14 -7 -11 -10 -10 -14
5 -4 17 -5 17 -6 -1z"/>
<path d="M7110 8120 c-23 -7 -23 -8 -3 -9 12 -1 25 4 28 9 3 6 5 10 3 9 -2 -1
-14 -5 -28 -9z"/>
<path d="M6882 8078 c-7 -7 -12 -23 -13 -37 0 -24 -1 -24 -9 -6 -8 18 -9 17
-9 -7 -1 -31 16 -38 26 -10 6 14 8 13 14 -8 5 -18 7 -11 8 28 1 57 1 58 -17
40z"/>
<path d="M7020 8055 c0 -8 2 -15 4 -15 2 0 6 7 10 15 3 8 1 15 -4 15 -6 0 -10
-7 -10 -15z"/>
<path d="M3057 8054 c-4 -4 2 -19 13 -34 11 -16 20 -34 20 -42 0 -7 7 -21 14
-31 13 -16 14 -15 13 17 0 19 -5 33 -9 30 -4 -3 -8 12 -9 33 0 30 -2 34 -9 18
-7 -17 -9 -17 -9 -2 -1 17 -12 22 -24 11z"/>
<path d="M6832 8005 c0 -16 2 -22 5 -12 2 9 2 23 0 30 -3 6 -5 -1 -5 -18z"/>
<path d="M6802 7998 c-7 -7 -11 -21 -11 -32 1 -18 2 -18 6 -3 2 9 9 15 14 12
5 -4 9 3 9 14 0 24 -2 25 -18 9z"/>
<path d="M3132 7925 c0 -16 2 -22 5 -12 2 9 2 23 0 30 -3 6 -5 -1 -5 -18z"/>
<path d="M3150 7896 c0 -9 8 -14 20 -13 11 1 20 2 20 4 0 1 -9 7 -20 13 -16 8
-20 8 -20 -4z"/>
<path d="M3170 7854 c0 -11 28 -33 34 -27 13 13 5 33 -14 33 -11 0 -20 -3 -20
-6z"/>
<path d="M3216 7825 c-9 -26 -7 -32 5 -12 6 10 9 21 6 23 -2 3 -7 -2 -11 -11z"/>
<path d="M3231 7794 c0 -11 3 -14 6 -6 3 7 2 16 -1 19 -3 4 -6 -2 -5 -13z"/>
<path d="M3250 7801 c0 -5 7 -11 15 -15 8 -3 15 -1 15 3 0 5 -7 11 -15 15 -8
3 -15 1 -15 -3z"/>
<path d="M3250 7770 c0 -5 7 -10 16 -10 8 0 12 5 9 10 -3 6 -10 10 -16 10 -5
0 -9 -4 -9 -10z"/>
<path d="M3291 7753 c-1 -23 4 -33 14 -33 8 0 15 -5 15 -11 0 -6 9 -9 20 -6
10 3 20 2 22 -2 2 -4 24 -14 51 -23 46 -15 47 -15 47 6 0 17 -2 18 -10 6 -8
-12 -10 -10 -11 10 0 23 -1 23 -9 5 -7 -17 -9 -17 -9 -2 -1 15 -24 23 -53 18
-5 0 -8 9 -8 22 0 18 -2 19 -10 7 -7 -11 -10 -11 -10 -2 0 7 -4 10 -10 7 -5
-3 -10 0 -10 7 0 10 -2 10 -9 -1 -7 -11 -10 -10 -14 5 -3 12 -5 6 -6 -13z"/>
<path d="M3471 7674 c0 -11 3 -14 6 -6 3 7 2 16 -1 19 -3 4 -6 -2 -5 -13z"/>
<path d="M3770 7333 c0 -14 -2 -15 -9 -5 -7 11 -10 10 -15 -3 -9 -23 -8 -25 9
-25 11 0 15 -11 16 -37 0 -31 2 -34 9 -18 7 15 9 10 9 -23 1 -29 6 -45 17 -49
13 -5 13 -7 2 -14 -10 -7 -11 -9 0 -9 7 0 10 -4 7 -10 -3 -6 4 -10 17 -10 17
0 19 -3 9 -9 -11 -7 -10 -12 8 -22 11 -8 21 -19 21 -25 0 -7 7 -14 15 -18 8
-3 15 -1 15 4 0 6 -4 10 -10 10 -5 0 -10 19 -11 43 0 32 -2 37 -9 22 -7 -15
-9 -9 -9 25 -1 25 -8 56 -17 68 -9 13 -13 26 -10 29 8 9 -15 34 -25 27 -5 -3
-9 11 -9 30 0 25 -4 36 -15 36 -8 0 -15 -8 -15 -17z m17 -40 c-3 -10 -5 -2 -5
17 0 19 2 27 5 18 2 -10 2 -26 0 -35z"/>
<path d="M2740 5762 c-8 -9 -14 -23 -12 -30 2 -8 -1 -12 -5 -9 -12 8 -25 -3
-48 -38 -33 -50 -44 -75 -34 -75 5 0 9 -4 9 -10 0 -5 -7 -10 -15 -10 -8 0 -15
-4 -15 -10 0 -5 7 -10 15 -10 16 0 20 -15 7 -24 -5 -3 -10 -31 -11 -62 -1 -31
-4 -61 -7 -65 -2 -5 -2 -50 2 -101 5 -64 10 -86 16 -73 5 14 7 4 4 -28 -4 -56
2 -89 16 -81 6 4 9 -6 8 -22 -3 -32 17 -94 30 -94 5 0 7 -9 5 -20 -2 -11 3
-26 11 -34 8 -8 14 -23 14 -33 0 -15 2 -16 10 -3 8 12 10 10 10 -10 0 -15 4
-30 9 -35 5 -6 11 -19 14 -30 3 -11 5 -1 6 23 0 23 -3 42 -7 42 -5 0 -14 18
-21 40 -6 22 -17 40 -22 40 -6 0 -9 6 -6 13 3 7 -1 21 -9 32 -8 10 -14 29 -14
42 0 13 -4 23 -10 23 -6 0 -11 34 -12 78 l-1 77 -7 -60 c-4 -39 -7 -1 -7 110
0 98 3 153 7 130 6 -33 8 -25 10 45 2 62 4 77 10 55 6 -25 8 -20 9 28 0 32 5
56 10 53 5 -4 12 13 16 36 4 24 14 47 22 53 8 6 13 22 11 37 -3 24 -4 25 -18
10z m-20 -62 c0 -5 -4 -10 -10 -10 -5 0 -10 5 -10 10 0 6 5 10 10 10 6 0 10
-4 10 -10z m-33 -62 c-3 -8 -6 -5 -6 6 -1 11 2 17 5 13 3 -3 4 -12 1 -19z"/>
<path d="M2791 4867 c-1 -28 5 -44 24 -63 14 -14 23 -30 20 -35 -4 -5 2 -9 12
-9 15 0 16 -2 3 -10 -12 -8 -10 -10 10 -10 20 0 22 -2 10 -10 -13 -8 -12 -10
3 -10 10 0 16 -4 13 -8 -3 -5 4 -14 14 -22 10 -8 17 -17 14 -22 -3 -4 7 -8 23
-9 25 0 26 -1 8 -9 -18 -8 -18 -9 -2 -9 10 -1 15 -5 12 -11 -3 -5 -1 -10 4
-10 6 0 11 -8 12 -17 0 -15 2 -15 9 2 7 17 9 16 10 -10 2 -30 2 -30 10 -5 7
22 8 20 10 -15 1 -22 4 -32 7 -21 4 17 6 16 17 -5 7 -16 22 -25 41 -27 17 -2
34 -8 40 -13 5 -5 13 -9 17 -9 5 0 -6 15 -24 33 -21 22 -36 30 -40 23 -5 -7
-8 -4 -8 7 0 9 -4 17 -10 17 -5 0 -10 8 -10 18 0 14 -2 15 -10 2 -9 -13 -10
-13 -10 0 -1 21 -46 70 -65 70 -9 0 -14 4 -11 9 3 5 -1 11 -9 15 -8 3 -15 13
-15 23 0 15 -2 16 -10 3 -8 -12 -10 -9 -10 13 0 16 -4 26 -10 22 -5 -3 -10 -1
-10 4 0 6 -7 11 -15 11 -9 0 -12 6 -8 17 4 11 3 14 -5 9 -8 -5 -12 2 -12 19 0
15 -4 24 -10 20 -5 -3 -10 1 -10 10 0 9 -4 14 -9 10 -5 -3 -12 7 -14 22 -3 23
-4 20 -6 -10z"/>
<path d="M3170 4418 c-5 -13 -9 -17 -9 -10 -1 18 -15 15 -45 -13 -20 -18 -26
-33 -25 -62 1 -34 2 -35 9 -13 l8 25 1 -27 c1 -20 -4 -28 -16 -28 -15 0 -15
-2 2 -14 14 -10 22 -10 31 -2 9 8 9 13 0 18 -19 13 3 9 24 -4 15 -9 23 -10 28
-2 4 6 15 13 25 17 10 4 17 17 17 32 0 15 -4 24 -10 20 -5 -3 -10 1 -10 10 0
10 5 13 13 9 7 -5 6 -1 -3 10 -13 17 -14 17 -22 -1 -5 -11 -6 -4 -3 20 7 41
-1 49 -15 15z"/>
<path d="M3232 4345 c0 -16 2 -22 5 -12 2 9 2 23 0 30 -3 6 -5 -1 -5 -18z"/>
<path d="M2956 4228 c3 -10 1 -18 -5 -18 -6 0 -11 5 -11 11 0 22 -29 -19 -33
-47 -4 -26 -4 -25 -6 8 0 20 4 39 9 41 6 3 5 4 -2 3 -7 -1 -15 -13 -19 -27 -4
-13 -8 -17 -8 -9 -2 26 -17 41 -34 34 -12 -4 -17 -18 -17 -51 0 -24 4 -42 9
-39 5 4 12 0 14 -6 4 -10 6 -9 6 1 1 10 4 11 14 3 10 -8 20 -5 41 13 16 14 37
27 47 30 11 4 19 11 19 17 0 6 8 8 19 5 11 -2 25 3 35 14 9 11 12 19 6 19 -5
0 -12 -5 -15 -10 -5 -8 -11 -8 -20 0 -10 8 -15 8 -20 0 -5 -8 -12 -5 -21 7
-13 16 -14 16 -8 1z m-91 -28 c-3 -5 -10 -10 -16 -10 -5 0 -9 5 -9 10 0 6 7
10 16 10 8 0 12 -4 9 -10z"/>
<path d="M2810 4199 c0 -5 -3 -8 -7 -6 -5 3 -14 -1 -21 -9 -11 -12 -9 -14 7
-14 12 0 21 -8 24 -22 2 -13 5 -4 6 20 0 23 -1 42 -4 42 -3 0 -5 -5 -5 -11z"/>
<path d="M2780 4150 c0 -5 5 -10 10 -10 6 0 10 5 10 10 0 6 -4 10 -10 10 -5 0
-10 -4 -10 -10z"/>
<path d="M1811 4044 c0 -11 3 -14 6 -6 3 7 2 16 -1 19 -3 4 -6 -2 -5 -13z"/>
<path d="M1851 4024 c0 -11 3 -14 6 -6 3 7 2 16 -1 19 -3 4 -6 -2 -5 -13z"/>
<path d="M1932 3988 c6 -16 49 -39 60 -32 4 3 8 12 8 21 0 13 -2 13 -16 2 -14
-11 -18 -11 -29 4 -14 20 -29 23 -23 5z"/>
<path d="M2008 3972 c-5 -18 0 -25 23 -37 22 -12 29 -13 29 -3 0 9 3 8 10 -2
8 -13 10 -12 10 3 0 11 -8 17 -22 17 -19 0 -20 2 -8 10 13 8 12 10 -2 10 -10
0 -18 -6 -19 -12 -1 -7 -4 -2 -8 12 l-7 25 -6 -23z"/>
<path d="M2109 3938 c0 -22 -1 -22 -9 -3 -8 19 -9 19 -9 -2 -1 -14 5 -23 14
-23 9 0 15 9 15 25 0 31 -10 33 -11 3z"/>
<path d="M2132 3930 c0 -14 2 -19 5 -12 2 6 2 18 0 25 -3 6 -5 1 -5 -13z"/>
<path d="M2151 3929 c0 -16 5 -29 15 -33 28 -11 34 -7 33 22 l-1 27 -8 -25 -8
-25 -2 25 c-1 23 -2 23 -9 5 -8 -19 -9 -18 -13 5 l-5 25 -2 -26z"/>
<path d="M3713 3102 c-17 -36 -23 -68 -24 -127 -2 -66 -3 -73 -9 -40 -5 28 -8
5 -9 -77 -1 -83 -5 -118 -13 -121 -10 -4 -10 -6 0 -6 8 -1 12 -23 12 -75 0
-41 5 -78 10 -81 6 -4 10 -68 10 -161 0 -96 4 -154 10 -154 6 0 10 -6 10 -14
0 -8 7 -16 15 -20 13 -5 15 13 13 127 -1 99 -3 118 -8 77 -4 -30 -7 91 -7 270
0 179 3 312 7 295 5 -21 8 -2 9 63 0 50 0 92 -1 92 -2 0 -13 -22 -25 -48z m14
-64 c-3 -8 -6 -5 -6 6 -1 11 2 17 5 13 3 -3 4 -12 1 -19z m-20 -240 c-2 -13
-4 -3 -4 22 0 25 2 35 4 23 2 -13 2 -33 0 -45z m0 -180 c-2 -29 -3 -6 -3 52 0
58 1 81 3 53 2 -29 2 -77 0 -105z m0 -260 c-3 -8 -6 -5 -6 6 -1 11 2 17 5 13
3 -3 4 -12 1 -19z m0 -80 c-3 -8 -6 -5 -6 6 -1 11 2 17 5 13 3 -3 4 -12 1 -19z"/>
<path d="M3752 3120 c0 -14 2 -19 5 -12 2 6 2 18 0 25 -3 6 -5 1 -5 -13z"/>
<path d="M3672 2490 c0 -14 2 -19 5 -12 2 6 2 18 0 25 -3 6 -5 1 -5 -13z"/>
<path d="M3721 2202 c18 -29 35 -34 36 -11 1 10 -2 19 -7 19 -5 0 -16 3 -25 6
-15 6 -15 4 -4 -14z"/>
<path d="M7649 1838 c0 -7 -1 -33 -1 -58 1 -41 0 -42 -8 -15 -7 27 -8 26 -11
-20 -1 -27 -3 -61 -3 -75 -1 -14 -4 -30 -8 -35 -3 -6 0 -19 8 -30 13 -17 14
-12 14 48 0 37 4 67 9 67 5 0 11 29 13 65 1 36 0 65 -4 65 -5 0 -8 -6 -9 -12z"/>
<path d="M1862 1831 c-11 -7 -11 -9 1 -14 16 -6 27 0 27 15 0 10 -11 10 -28
-1z"/>
<path d="M1352 1810 c0 -14 2 -19 5 -12 2 6 2 18 0 25 -3 6 -5 1 -5 -13z"/>
<path d="M5795 1809 c-4 -6 -5 -12 -2 -15 2 -3 7 2 10 11 7 17 1 20 -8 4z"/>
<path d="M6104 1805 c-10 -8 -14 -15 -8 -15 6 0 17 7 24 15 16 19 9 19 -16 0z"/>
<path d="M3763 1803 c-7 -3 -13 -19 -13 -36 0 -31 0 -31 16 -9 17 25 15 51 -3
45z"/>
<path d="M6425 1800 c3 -5 8 -10 11 -10 2 0 4 5 4 10 0 6 -5 10 -11 10 -5 0
-7 -4 -4 -10z"/>
<path d="M6460 1795 c-6 -8 -10 -19 -8 -26 2 -6 9 0 16 15 13 29 10 33 -8 11z"/>
<path d="M4944 1775 c3 -8 1 -15 -4 -15 -6 0 -10 -12 -10 -27 0 -21 3 -24 9
-13 6 8 7 18 5 22 -3 4 0 8 5 8 6 0 11 9 11 20 0 11 -5 20 -11 20 -6 0 -9 -7
-5 -15z"/>
<path d="M5770 1770 c0 -5 5 -10 10 -10 6 0 10 -17 11 -37 1 -33 2 -34 8 -13
10 34 2 70 -15 70 -8 0 -14 -4 -14 -10z"/>
<path d="M6104 1755 c1 -33 16 -33 16 0 0 14 -4 25 -9 25 -5 0 -8 -11 -7 -25z"/>
<path d="M8120 1760 c-10 -14 -16 -16 -22 -7 -5 8 -8 7 -8 -5 0 -32 42 -18 48
15 4 22 0 22 -18 -3z"/>
<path d="M1791 1754 c0 -11 3 -14 6 -6 3 7 2 16 -1 19 -3 4 -6 -2 -5 -13z"/>
<path d="M2390 1757 c0 -10 -4 -15 -10 -12 -5 3 -10 1 -10 -4 0 -13 10 -14 27
-3 8 5 9 13 3 22 -8 13 -10 12 -10 -3z"/>
<path d="M6435 1739 c-4 -6 -5 -12 -2 -15 2 -3 7 2 10 11 7 17 1 20 -8 4z"/>
<path d="M1311 1729 c-1 -8 6 -24 14 -35 15 -18 15 -18 8 0 -4 13 -3 17 5 12
8 -5 10 -2 6 8 -3 9 -10 14 -14 11 -5 -3 -11 1 -13 7 -4 9 -6 8 -6 -3z"/>
<path d="M1792 1703 c-1 -17 -8 -33 -14 -36 -7 -2 -11 -7 -8 -10 14 -15 31 13
27 44 l-4 34 -1 -32z"/>
<path d="M3750 1686 c0 -25 -4 -48 -10 -51 -5 -3 -10 -26 -10 -51 0 -30 4 -43
11 -38 6 3 8 17 4 31 -4 16 -2 22 5 18 6 -4 10 18 10 64 0 39 -2 71 -5 71 -3
0 -5 -20 -5 -44z"/>
<path d="M1392 1700 c0 -14 2 -19 5 -12 2 6 2 18 0 25 -3 6 -5 1 -5 -13z"/>
<path d="M4906 1705 c-9 -26 -7 -32 5 -12 6 10 9 21 6 23 -2 3 -7 -2 -11 -11z"/>
<path d="M6111 1704 c0 -11 3 -14 6 -6 3 7 2 16 -1 19 -3 4 -6 -2 -5 -13z"/>
<path d="M5811 1694 c0 -11 3 -14 6 -6 3 7 2 16 -1 19 -3 4 -6 -2 -5 -13z"/>
<path d="M6131 1694 c0 -11 3 -14 6 -6 3 7 2 16 -1 19 -3 4 -6 -2 -5 -13z"/>
<path d="M8360 1695 c-7 -8 -10 -21 -7 -30 4 -8 3 -17 -2 -19 -4 -3 -6 -20 -4
-38 3 -20 1 -28 -4 -21 -6 8 -9 -2 -10 -27 -1 -22 2 -42 8 -45 5 -4 9 6 9 22
0 15 7 40 14 56 8 15 10 27 5 27 -10 0 -7 60 5 78 10 17 1 15 -14 -3z"/>
<path d="M4646 1655 c-3 -8 -1 -15 4 -15 6 0 10 7 10 15 0 8 -2 15 -4 15 -2 0
-6 -7 -10 -15z"/>
<path d="M5817 1663 c-4 -3 -7 -11 -7 -17 0 -6 5 -5 12 2 6 6 9 14 7 17 -3 3
-9 2 -12 -2z"/>
<path d="M6137 1663 c-11 -10 -8 -53 3 -53 6 0 10 -17 11 -37 0 -34 1 -36 10
-15 6 17 5 33 -7 57 -9 19 -13 39 -9 44 7 12 2 15 -8 4z"/>
<path d="M4639 1625 c-1 -3 -3 -9 -4 -15 -1 -5 -3 -20 -4 -32 -1 -17 -4 -19
-10 -10 -5 8 -9 -15 -10 -58 -1 -39 -7 -82 -13 -96 -8 -17 -9 -28 -1 -32 5 -4
13 -14 16 -22 3 -8 6 17 7 55 3 141 17 184 58 178 22 -3 21 -1 -8 10 -24 10
-30 16 -20 20 9 3 10 6 3 6 -7 1 -14 -1 -14 -4z"/>
<path d="M5815 1620 c3 -5 10 -10 16 -10 5 0 9 5 9 10 0 6 -7 10 -16 10 -8 0
-12 -4 -9 -10z"/>
<path d="M1425 1610 c3 -5 8 -10 11 -10 2 0 4 5 4 10 0 6 -5 10 -11 10 -5 0
-7 -4 -4 -10z"/>
<path d="M1798 1603 c7 -3 16 -2 19 1 4 3 -2 6 -13 5 -11 0 -14 -3 -6 -6z"/>
<path d="M2197 1603 c-4 -3 -7 -16 -6 -27 0 -19 1 -19 10 3 10 24 8 36 -4 24z"/>
<path d="M3222 1598 c-7 -7 -12 -22 -12 -34 0 -12 -4 -24 -9 -26 -5 -1 -3 -12
5 -22 13 -18 14 -17 14 18 0 20 5 46 10 57 12 22 9 24 -8 7z"/>
<path d="M6080 1602 c-14 -6 -14 -9 2 -24 17 -17 18 -17 18 7 0 14 -1 25 -2
24 -2 0 -10 -3 -18 -7z"/>
<path d="M8101 1588 c-16 -25 -23 -96 -10 -103 5 -4 9 10 9 29 0 19 5 47 10
62 13 33 8 40 -9 12z"/>
<path d="M6947 1587 c-3 -8 -1 -20 5 -28 8 -11 9 -11 5 2 -3 9 0 22 6 28 8 8
8 11 0 11 -6 0 -13 -6 -16 -13z"/>
<path d="M7133 1584 c-5 -13 -8 -13 -15 -2 -8 10 -9 10 -6 -1 7 -23 25 -24 31
-1 6 24 -1 27 -10 4z"/>
<path d="M7611 1584 c0 -11 3 -14 6 -6 3 7 2 16 -1 19 -3 4 -6 -2 -5 -13z"/>
<path d="M1765 1578 c-9 -30 -11 -67 -4 -63 4 3 10 -9 12 -27 2 -18 4 -8 4 23
0 31 4 62 7 68 4 6 2 11 -4 11 -6 0 -12 -6 -15 -12z"/>
<path d="M2360 1538 c-6 -29 -10 -78 -8 -108 4 -52 4 -51 6 17 1 39 6 74 11
77 12 8 20 55 10 61 -4 3 -13 -18 -19 -47z"/>
<path d="M2742 1576 c7 -8 17 -12 22 -9 4 3 2 9 -5 14 -22 13 -31 11 -17 -5z"/>
<path d="M5290 1579 c0 -5 -4 -7 -10 -4 -5 3 -10 1 -10 -4 0 -17 27 -13 34 4
3 8 1 15 -4 15 -6 0 -10 -5 -10 -11z"/>
<path d="M5830 1571 c0 -25 6 -27 13 -6 4 8 2 17 -3 20 -6 4 -10 -3 -10 -14z"/>
<path d="M2781 1563 c-16 -17 -11 -25 8 -14 7 5 12 13 10 19 -2 6 -10 4 -18
-5z"/>
<path d="M4422 1568 c-6 -6 -12 -21 -11 -32 0 -15 2 -17 6 -6 3 8 10 18 16 21
5 4 8 12 6 18 -3 9 -8 8 -17 -1z"/>
<path d="M7405 1570 c3 -5 8 -10 11 -10 2 0 4 5 4 10 0 6 -5 10 -11 10 -5 0
-7 -4 -4 -10z"/>
<path d="M7430 1569 c0 -5 5 -7 10 -4 6 3 10 8 10 11 0 2 -4 4 -10 4 -5 0 -10
-5 -10 -11z"/>
<path d="M7792 1560 c0 -14 2 -19 5 -12 2 6 2 18 0 25 -3 6 -5 1 -5 -13z"/>
<path d="M1970 1559 c0 -15 18 -19 23 -6 3 8 -1 14 -9 14 -8 0 -14 -4 -14 -8z"/>
<path d="M7272 1550 c0 -14 2 -19 5 -12 2 6 2 18 0 25 -3 6 -5 1 -5 -13z"/>
<path d="M1435 1550 c-3 -5 -1 -10 4 -10 6 0 11 5 11 10 0 6 -2 10 -4 10 -3 0
-8 -4 -11 -10z"/>
<path d="M7632 1530 c0 -19 2 -27 5 -17 2 9 2 25 0 35 -3 9 -5 1 -5 -18z"/>
<path d="M7829 1520 c-2 -25 -3 -61 -4 -80 0 -19 -4 -41 -9 -48 -5 -8 -4 -18
2 -24 13 -13 24 34 16 67 -4 15 -1 32 6 40 7 8 10 24 7 35 -3 11 -1 18 4 14 5
-3 9 5 9 18 0 17 -3 19 -9 9 -7 -11 -9 -11 -14 0 -3 8 -7 -6 -8 -31z"/>
<path d="M8531 1544 c0 -11 3 -14 6 -6 3 7 2 16 -1 19 -3 4 -6 -2 -5 -13z"/>
<path d="M5791 1534 c0 -11 3 -14 6 -6 3 7 2 16 -1 19 -3 4 -6 -2 -5 -13z"/>
<path d="M5853 1515 c0 -22 2 -30 4 -17 2 12 2 30 0 40 -3 9 -5 -1 -4 -23z"/>
<path d="M6172 1525 c0 -16 2 -22 5 -12 2 9 2 23 0 30 -3 6 -5 -1 -5 -18z"/>
<path d="M6506 1533 c-6 -14 -5 -15 5 -6 7 7 10 15 7 18 -3 3 -9 -2 -12 -12z"/>
<path d="M6771 1524 c0 -11 3 -14 6 -6 3 7 2 16 -1 19 -3 4 -6 -2 -5 -13z"/>
<path d="M2059 1513 c-13 -16 -12 -17 4 -4 9 7 17 15 17 17 0 8 -8 3 -21 -13z"/>
<path d="M8594 1502 c3 -22 0 -35 -10 -39 -9 -3 -14 -20 -14 -47 0 -41 0 -41
14 -15 19 36 26 90 15 114 -7 16 -8 13 -5 -13z"/>
<path d="M2943 1494 c-6 -13 -7 -24 -3 -24 9 0 25 39 18 45 -2 2 -8 -7 -15
-21z"/>
<path d="M3720 1503 c0 -10 -2 -52 -4 -93 -3 -56 -2 -67 5 -45 5 17 7 42 3 57
-3 14 0 29 5 33 13 8 15 65 2 65 -6 0 -10 -8 -11 -17z"/>
<path d="M5100 1513 c0 -14 39 -53 53 -53 8 1 7 5 -3 13 -8 7 -23 20 -32 30
-10 10 -18 14 -18 10z"/>
<path d="M6992 1513 c1 -4 -4 -26 -10 -48 -7 -22 -12 -60 -12 -84 0 -34 -6
-49 -25 -67 -14 -13 -21 -26 -15 -29 22 -13 47 33 55 99 3 37 10 80 15 96 5
18 5 32 -1 36 -5 3 -9 2 -7 -3z"/>
<path d="M7611 1505 c-2 -11 -2 -33 -2 -50 2 -23 0 -27 -8 -15 -8 11 -11 4
-13 -30 -1 -25 -1 -55 0 -67 0 -13 -3 -23 -9 -23 -5 0 -9 -7 -9 -15 0 -9 -6
-12 -17 -8 -11 4 -14 3 -9 -5 11 -18 36 -14 36 6 0 15 2 15 11 2 8 -11 9 -6 5
22 -2 21 -1 40 4 43 12 7 23 83 17 125 -2 19 -5 26 -6 15z"/>
<path d="M2547 1489 c-8 -31 3 -111 19 -133 8 -11 14 -16 14 -10 0 5 -4 14 -9
20 -14 13 -20 95 -10 122 5 12 5 22 0 22 -5 0 -11 -9 -14 -21z"/>
<path d="M4191 1494 c0 -11 3 -14 6 -6 3 7 2 16 -1 19 -3 4 -6 -2 -5 -13z"/>
<path d="M6497 1503 c-4 -3 -7 -15 -7 -25 0 -10 -4 -18 -10 -18 -14 0 -13 -97
1 -106 8 -5 9 6 4 36 -5 28 -4 40 3 36 6 -3 12 12 14 37 5 46 5 50 -5 40z"/>
<path d="M8315 1452 c-13 -93 -14 -142 -4 -142 5 0 9 22 9 49 0 28 4 52 8 55
11 7 15 83 4 90 -5 3 -13 -20 -17 -52z"/>
<path d="M1155 1490 c-3 -6 1 -7 9 -4 18 7 21 14 7 14 -6 0 -13 -4 -16 -10z"/>
<path d="M1390 1495 c0 -14 29 -35 35 -26 3 6 -4 15 -15 21 -11 6 -20 8 -20 5z"/>
<path d="M1469 1468 c4 -28 6 -29 9 -9 2 13 0 27 -5 32 -6 6 -7 -3 -4 -23z"/>
<path d="M3192 1480 c0 -14 2 -19 5 -12 2 6 2 18 0 25 -3 6 -5 1 -5 -13z"/>
<path d="M4360 1485 c-11 -13 -10 -14 4 -9 9 3 16 10 16 15 0 13 -6 11 -20 -6z"/>
<path d="M7251 1493 c0 -5 16 -21 35 -36 23 -20 34 -24 34 -15 0 8 -11 21 -25
28 -14 7 -25 17 -25 22 0 4 -4 8 -10 8 -5 0 -10 -3 -9 -7z"/>
<path d="M2047 1483 c-2 -5 -1 -19 4 -33 7 -23 7 -23 8 8 1 31 -3 40 -12 25z"/>
<path d="M1749 1411 c-2 -40 -1 -78 2 -83 9 -14 16 92 8 128 -4 19 -7 5 -10
-45z"/>
<path d="M6772 1450 c0 -19 2 -27 5 -17 2 9 2 25 0 35 -3 9 -5 1 -5 -18z"/>
<path d="M8069 1455 c-1 -16 -2 -47 -3 -68 -2 -21 0 -34 4 -30 13 14 20 97 10
113 -8 12 -10 8 -11 -15z"/>
<path d="M2920 1455 c0 -5 5 -17 10 -25 5 -8 10 -10 10 -5 0 6 -5 17 -10 25
-5 8 -10 11 -10 5z"/>
<path d="M2030 1405 c0 -22 -3 -51 -6 -65 -5 -17 -3 -22 3 -15 14 14 23 89 12
106 -6 9 -9 1 -9 -26z"/>
<path d="M3184 1428 c3 -9 1 -18 -5 -20 -5 -2 -6 -18 -2 -38 l7 -35 7 40 c4
22 3 47 -3 55 -8 13 -9 12 -4 -2z"/>
<path d="M5191 1424 c0 -11 3 -14 6 -6 3 7 2 16 -1 19 -3 4 -6 -2 -5 -13z"/>
<path d="M7330 1434 c0 -5 12 -20 25 -33 23 -21 34 -19 17 4 -13 18 -42 38
-42 29z"/>
<path d="M4171 1414 c0 -11 3 -14 6 -6 3 7 2 16 -1 19 -3 4 -6 -2 -5 -13z"/>
<path d="M6750 1410 c0 -11 4 -20 9 -20 5 0 7 9 4 20 -3 11 -7 20 -9 20 -2 0
-4 -9 -4 -20z"/>
<path d="M4186 1394 c-4 -14 -5 -28 -3 -31 3 -2 8 8 11 23 4 14 5 28 3 31 -3
2 -8 -8 -11 -23z"/>
<path d="M2333 1375 c0 -22 2 -30 4 -17 2 12 2 30 0 40 -3 9 -5 -1 -4 -23z"/>
<path d="M5271 1372 c-1 -34 -7 -48 -28 -67 -16 -13 -23 -25 -16 -25 16 0 63
58 62 78 0 9 -4 26 -9 37 -7 15 -9 10 -9 -23z"/>
<path d="M5922 1398 c-7 -7 -12 -16 -12 -21 0 -5 7 -1 16 8 9 9 14 18 12 20
-2 3 -10 -1 -16 -7z"/>
<path d="M6243 1403 c-7 -3 -13 -11 -13 -19 0 -8 -4 -14 -10 -14 -5 0 -10 -7
-10 -15 0 -8 -4 -15 -10 -15 -5 0 -10 -9 -10 -21 0 -11 -4 -17 -10 -14 -5 3
-10 -1 -10 -9 0 -9 3 -16 8 -16 9 0 46 62 44 73 -1 4 3 7 8 7 6 0 10 6 10 14
0 8 6 16 13 19 6 2 10 7 7 9 -3 3 -11 3 -17 1z"/>
<path d="M5231 1384 c0 -11 3 -14 6 -6 3 7 2 16 -1 19 -3 4 -6 -2 -5 -13z"/>
<path d="M2932 1365 c0 -16 2 -22 5 -12 2 9 2 23 0 30 -3 6 -5 -1 -5 -18z"/>
<path d="M6730 1367 c0 -8 -9 -22 -20 -32 -11 -10 -20 -22 -20 -28 0 -5 14 5
30 23 31 33 38 50 20 50 -5 0 -10 -6 -10 -13z"/>
<path d="M8547 1361 c-4 -15 -10 -20 -18 -15 -8 5 -10 3 -4 -5 10 -17 39 11
33 30 -3 8 -7 4 -11 -10z"/>
<path d="M5890 1352 c0 -12 -4 -22 -10 -22 -5 0 -10 -12 -10 -27 1 -27 2 -27
21 11 15 27 18 41 10 49 -8 8 -11 5 -11 -11z"/>
<path d="M7414 1348 c0 -10 3 -18 7 -18 4 0 9 8 11 18 3 10 0 19 -6 19 -7 0
-12 -9 -12 -19z"/>
<path d="M6445 1340 c3 -5 8 -10 11 -10 2 0 4 5 4 10 0 6 -5 10 -11 10 -5 0
-7 -4 -4 -10z"/>
<path d="M2530 1331 c0 -15 18 -34 48 -50 14 -7 22 -8 22 -1 0 5 -5 10 -10 10
-6 0 -22 12 -35 26 -14 15 -25 21 -25 15z"/>
<path d="M6470 1322 c0 -5 11 -18 25 -30 30 -26 33 -15 5 16 -22 23 -30 27
-30 14z"/>
<path d="M8500 1315 c-11 -13 -10 -14 4 -9 9 3 16 10 16 15 0 13 -6 11 -20 -6z"/>
<path d="M1734 1298 c2 -16 -1 -28 -5 -28 -5 0 -9 -21 -9 -46 0 -32 -3 -43
-12 -38 -7 5 -8 3 -3 -5 11 -19 25 1 28 40 1 19 6 37 11 40 5 4 3 19 -3 35
l-11 29 4 -27z"/>
<path d="M4026 1313 c-4 -5 -22 -14 -39 -20 l-32 -13 35 6 c32 6 77 34 54 34
-6 0 -14 -3 -18 -7z"/>
<path d="M4190 1301 c27 -21 70 -33 70 -20 0 5 -8 9 -18 9 -10 0 -27 7 -38 15
-10 8 -23 14 -29 14 -5 1 1 -8 15 -18z"/>
<path d="M4560 1312 c0 -25 81 -44 95 -22 3 5 -9 9 -29 8 -19 -1 -42 5 -51 12
-9 8 -15 9 -15 2z"/>
<path d="M5040 1316 c0 -11 70 -44 75 -35 4 5 1 9 -4 9 -6 0 -11 8 -11 18 0
11 -3 13 -8 5 -5 -8 -13 -9 -22 -3 -16 10 -30 13 -30 6z"/>
<path d="M5851 1304 c0 -11 3 -14 6 -6 3 7 2 16 -1 19 -3 4 -6 -2 -5 -13z"/>
<path d="M7395 1310 c3 -5 11 -10 16 -10 6 0 7 5 4 10 -3 6 -11 10 -16 10 -6
0 -7 -4 -4 -10z"/>
<path d="M7853 1312 c-13 -2 -23 -10 -23 -18 0 -18 10 -17 34 1 23 17 20 22
-11 17z"/>
<path d="M1508 1303 c-22 -5 -24 -20 -3 -20 8 0 15 5 15 11 0 6 5 4 10 -4 8
-13 10 -12 10 3 0 17 -2 18 -32 10z"/>
<path d="M1985 1300 c-22 -10 -20 -11 13 -15 13 -1 22 3 22 11 0 16 -6 16 -35
4z"/>
<path d="M2351 1294 c0 -11 3 -14 6 -6 3 7 2 16 -1 19 -3 4 -6 -2 -5 -13z"/>
<path d="M2378 1303 c7 -3 16 -2 19 1 4 3 -2 6 -13 5 -11 0 -14 -3 -6 -6z"/>
<path d="M3665 1301 c-6 -5 -21 -11 -35 -14 -16 -3 -11 -4 13 -4 23 1 37 6 37
14 0 15 -3 16 -15 4z"/>
<path d="M3691 1294 c0 -11 3 -14 6 -6 3 7 2 16 -1 19 -3 4 -6 -2 -5 -13z"/>
<path d="M3711 1294 c0 -11 3 -14 6 -6 3 7 2 16 -1 19 -3 4 -6 -2 -5 -13z"/>
<path d="M7195 1300 c3 -5 11 -10 16 -10 6 0 7 5 4 10 -3 6 -11 10 -16 10 -6
0 -7 -4 -4 -10z"/>
<path d="M8030 1296 c0 -20 28 -21 71 0 23 10 26 13 9 9 -34 -9 -42 -9 -62 0
-13 5 -18 2 -18 -9z"/>
<path d="M1060 1290 c14 -4 34 -8 45 -9 16 -1 17 1 5 9 -8 5 -28 9 -45 9 -29
-1 -29 -1 -5 -9z"/>
<path d="M1550 1290 c0 -5 5 -10 11 -10 5 0 7 5 4 10 -3 6 -8 10 -11 10 -2 0
-4 -4 -4 -10z"/>
<path d="M2305 1290 c3 -5 8 -10 11 -10 2 0 4 5 4 10 0 6 -5 10 -11 10 -5 0
-7 -4 -4 -10z"/>
<path d="M2934 1291 c4 -7 13 -10 19 -8 7 2 19 1 28 -4 8 -4 22 -3 30 2 12 7
11 9 -2 9 -9 0 -31 3 -49 7 -25 4 -31 3 -26 -6z"/>
<path d="M3175 1291 c-3 -5 -1 -12 5 -16 5 -3 10 -2 10 4 0 5 8 12 18 14 13 4
12 5 -5 6 -12 0 -24 -3 -28 -8z"/>
<path d="M7230 1290 c0 -5 7 -10 16 -10 8 0 12 5 9 10 -3 6 -10 10 -16 10 -5
0 -9 -4 -9 -10z"/>
<path d="M7370 1289 c0 -5 5 -7 10 -4 6 3 10 8 10 11 0 2 -4 4 -10 4 -5 0 -10
-5 -10 -11z"/>
<path d="M7790 1290 c0 -5 7 -10 15 -10 8 0 15 5 15 10 0 6 -7 10 -15 10 -8 0
-15 -4 -15 -10z"/>
<path d="M2610 1280 c0 -6 7 -10 15 -10 8 0 15 2 15 4 0 2 -7 6 -15 10 -8 3
-15 1 -15 -4z"/>
<path d="M8301 1281 c-13 -8 -19 -117 -6 -129 3 -3 5 23 5 57 0 39 4 60 10 56
6 -3 10 1 10 9 0 18 0 19 -19 7z"/>
<path d="M8271 1174 c0 -11 3 -14 6 -6 3 7 2 16 -1 19 -3 4 -6 -2 -5 -13z"/>
<path d="M1691 1144 c0 -11 3 -14 6 -6 3 7 2 16 -1 19 -3 4 -6 -2 -5 -13z"/>
<path d="M1630 1129 c0 -10 23 -17 38 -12 21 8 13 19 -13 19 -14 0 -25 -3 -25
-7z"/>
<path d="M8263 1133 c-20 -7 -15 -19 7 -19 11 0 20 6 20 13 0 14 -6 15 -27 6z"/>
</g>
</svg>
